G04 #@! TF.GenerationSoftware,KiCad,Pcbnew,5.1.5+dfsg1-2build2*
G04 #@! TF.CreationDate,2020-06-29T20:33:36+01:00*
G04 #@! TF.ProjectId,program_usb_kit,70726f67-7261-46d5-9f75-73625f6b6974,rev?*
G04 #@! TF.SameCoordinates,Original*
G04 #@! TF.FileFunction,Paste,Top*
G04 #@! TF.FilePolarity,Positive*
%FSLAX46Y46*%
G04 Gerber Fmt 4.6, Leading zero omitted, Abs format (unit mm)*
G04 Created by KiCad (PCBNEW 5.1.5+dfsg1-2build2) date 2020-06-29 20:33:36*
%MOMM*%
%LPD*%
G04 APERTURE LIST*
%ADD10R,1.597660X2.298700*%
%ADD11C,0.100000*%
%ADD12R,0.650000X1.060000*%
%ADD13R,1.270000X2.540000*%
%ADD14R,2.680000X3.600000*%
%ADD15R,0.610000X2.000000*%
%ADD16R,0.740000X2.400000*%
%ADD17R,0.400000X0.650000*%
%ADD18R,0.600000X1.160000*%
%ADD19R,0.300000X1.160000*%
%ADD20R,2.059940X1.270000*%
%ADD21R,1.400000X1.000000*%
%ADD22R,1.400000X1.200000*%
G04 APERTURE END LIST*
D10*
X229362000Y-72999600D03*
X229362000Y-66700400D03*
X247015000Y-72999600D03*
X247015000Y-66700400D03*
D11*
G36*
X230389691Y-63407053D02*
G01*
X230410926Y-63410203D01*
X230431750Y-63415419D01*
X230451962Y-63422651D01*
X230471368Y-63431830D01*
X230489781Y-63442866D01*
X230507024Y-63455654D01*
X230522930Y-63470070D01*
X230537346Y-63485976D01*
X230550134Y-63503219D01*
X230561170Y-63521632D01*
X230570349Y-63541038D01*
X230577581Y-63561250D01*
X230582797Y-63582074D01*
X230585947Y-63603309D01*
X230587000Y-63624750D01*
X230587000Y-64137250D01*
X230585947Y-64158691D01*
X230582797Y-64179926D01*
X230577581Y-64200750D01*
X230570349Y-64220962D01*
X230561170Y-64240368D01*
X230550134Y-64258781D01*
X230537346Y-64276024D01*
X230522930Y-64291930D01*
X230507024Y-64306346D01*
X230489781Y-64319134D01*
X230471368Y-64330170D01*
X230451962Y-64339349D01*
X230431750Y-64346581D01*
X230410926Y-64351797D01*
X230389691Y-64354947D01*
X230368250Y-64356000D01*
X229930750Y-64356000D01*
X229909309Y-64354947D01*
X229888074Y-64351797D01*
X229867250Y-64346581D01*
X229847038Y-64339349D01*
X229827632Y-64330170D01*
X229809219Y-64319134D01*
X229791976Y-64306346D01*
X229776070Y-64291930D01*
X229761654Y-64276024D01*
X229748866Y-64258781D01*
X229737830Y-64240368D01*
X229728651Y-64220962D01*
X229721419Y-64200750D01*
X229716203Y-64179926D01*
X229713053Y-64158691D01*
X229712000Y-64137250D01*
X229712000Y-63624750D01*
X229713053Y-63603309D01*
X229716203Y-63582074D01*
X229721419Y-63561250D01*
X229728651Y-63541038D01*
X229737830Y-63521632D01*
X229748866Y-63503219D01*
X229761654Y-63485976D01*
X229776070Y-63470070D01*
X229791976Y-63455654D01*
X229809219Y-63442866D01*
X229827632Y-63431830D01*
X229847038Y-63422651D01*
X229867250Y-63415419D01*
X229888074Y-63410203D01*
X229909309Y-63407053D01*
X229930750Y-63406000D01*
X230368250Y-63406000D01*
X230389691Y-63407053D01*
G37*
G36*
X228814691Y-63407053D02*
G01*
X228835926Y-63410203D01*
X228856750Y-63415419D01*
X228876962Y-63422651D01*
X228896368Y-63431830D01*
X228914781Y-63442866D01*
X228932024Y-63455654D01*
X228947930Y-63470070D01*
X228962346Y-63485976D01*
X228975134Y-63503219D01*
X228986170Y-63521632D01*
X228995349Y-63541038D01*
X229002581Y-63561250D01*
X229007797Y-63582074D01*
X229010947Y-63603309D01*
X229012000Y-63624750D01*
X229012000Y-64137250D01*
X229010947Y-64158691D01*
X229007797Y-64179926D01*
X229002581Y-64200750D01*
X228995349Y-64220962D01*
X228986170Y-64240368D01*
X228975134Y-64258781D01*
X228962346Y-64276024D01*
X228947930Y-64291930D01*
X228932024Y-64306346D01*
X228914781Y-64319134D01*
X228896368Y-64330170D01*
X228876962Y-64339349D01*
X228856750Y-64346581D01*
X228835926Y-64351797D01*
X228814691Y-64354947D01*
X228793250Y-64356000D01*
X228355750Y-64356000D01*
X228334309Y-64354947D01*
X228313074Y-64351797D01*
X228292250Y-64346581D01*
X228272038Y-64339349D01*
X228252632Y-64330170D01*
X228234219Y-64319134D01*
X228216976Y-64306346D01*
X228201070Y-64291930D01*
X228186654Y-64276024D01*
X228173866Y-64258781D01*
X228162830Y-64240368D01*
X228153651Y-64220962D01*
X228146419Y-64200750D01*
X228141203Y-64179926D01*
X228138053Y-64158691D01*
X228137000Y-64137250D01*
X228137000Y-63624750D01*
X228138053Y-63603309D01*
X228141203Y-63582074D01*
X228146419Y-63561250D01*
X228153651Y-63541038D01*
X228162830Y-63521632D01*
X228173866Y-63503219D01*
X228186654Y-63485976D01*
X228201070Y-63470070D01*
X228216976Y-63455654D01*
X228234219Y-63442866D01*
X228252632Y-63431830D01*
X228272038Y-63422651D01*
X228292250Y-63415419D01*
X228313074Y-63410203D01*
X228334309Y-63407053D01*
X228355750Y-63406000D01*
X228793250Y-63406000D01*
X228814691Y-63407053D01*
G37*
G36*
X248042691Y-63407053D02*
G01*
X248063926Y-63410203D01*
X248084750Y-63415419D01*
X248104962Y-63422651D01*
X248124368Y-63431830D01*
X248142781Y-63442866D01*
X248160024Y-63455654D01*
X248175930Y-63470070D01*
X248190346Y-63485976D01*
X248203134Y-63503219D01*
X248214170Y-63521632D01*
X248223349Y-63541038D01*
X248230581Y-63561250D01*
X248235797Y-63582074D01*
X248238947Y-63603309D01*
X248240000Y-63624750D01*
X248240000Y-64137250D01*
X248238947Y-64158691D01*
X248235797Y-64179926D01*
X248230581Y-64200750D01*
X248223349Y-64220962D01*
X248214170Y-64240368D01*
X248203134Y-64258781D01*
X248190346Y-64276024D01*
X248175930Y-64291930D01*
X248160024Y-64306346D01*
X248142781Y-64319134D01*
X248124368Y-64330170D01*
X248104962Y-64339349D01*
X248084750Y-64346581D01*
X248063926Y-64351797D01*
X248042691Y-64354947D01*
X248021250Y-64356000D01*
X247583750Y-64356000D01*
X247562309Y-64354947D01*
X247541074Y-64351797D01*
X247520250Y-64346581D01*
X247500038Y-64339349D01*
X247480632Y-64330170D01*
X247462219Y-64319134D01*
X247444976Y-64306346D01*
X247429070Y-64291930D01*
X247414654Y-64276024D01*
X247401866Y-64258781D01*
X247390830Y-64240368D01*
X247381651Y-64220962D01*
X247374419Y-64200750D01*
X247369203Y-64179926D01*
X247366053Y-64158691D01*
X247365000Y-64137250D01*
X247365000Y-63624750D01*
X247366053Y-63603309D01*
X247369203Y-63582074D01*
X247374419Y-63561250D01*
X247381651Y-63541038D01*
X247390830Y-63521632D01*
X247401866Y-63503219D01*
X247414654Y-63485976D01*
X247429070Y-63470070D01*
X247444976Y-63455654D01*
X247462219Y-63442866D01*
X247480632Y-63431830D01*
X247500038Y-63422651D01*
X247520250Y-63415419D01*
X247541074Y-63410203D01*
X247562309Y-63407053D01*
X247583750Y-63406000D01*
X248021250Y-63406000D01*
X248042691Y-63407053D01*
G37*
G36*
X246467691Y-63407053D02*
G01*
X246488926Y-63410203D01*
X246509750Y-63415419D01*
X246529962Y-63422651D01*
X246549368Y-63431830D01*
X246567781Y-63442866D01*
X246585024Y-63455654D01*
X246600930Y-63470070D01*
X246615346Y-63485976D01*
X246628134Y-63503219D01*
X246639170Y-63521632D01*
X246648349Y-63541038D01*
X246655581Y-63561250D01*
X246660797Y-63582074D01*
X246663947Y-63603309D01*
X246665000Y-63624750D01*
X246665000Y-64137250D01*
X246663947Y-64158691D01*
X246660797Y-64179926D01*
X246655581Y-64200750D01*
X246648349Y-64220962D01*
X246639170Y-64240368D01*
X246628134Y-64258781D01*
X246615346Y-64276024D01*
X246600930Y-64291930D01*
X246585024Y-64306346D01*
X246567781Y-64319134D01*
X246549368Y-64330170D01*
X246529962Y-64339349D01*
X246509750Y-64346581D01*
X246488926Y-64351797D01*
X246467691Y-64354947D01*
X246446250Y-64356000D01*
X246008750Y-64356000D01*
X245987309Y-64354947D01*
X245966074Y-64351797D01*
X245945250Y-64346581D01*
X245925038Y-64339349D01*
X245905632Y-64330170D01*
X245887219Y-64319134D01*
X245869976Y-64306346D01*
X245854070Y-64291930D01*
X245839654Y-64276024D01*
X245826866Y-64258781D01*
X245815830Y-64240368D01*
X245806651Y-64220962D01*
X245799419Y-64200750D01*
X245794203Y-64179926D01*
X245791053Y-64158691D01*
X245790000Y-64137250D01*
X245790000Y-63624750D01*
X245791053Y-63603309D01*
X245794203Y-63582074D01*
X245799419Y-63561250D01*
X245806651Y-63541038D01*
X245815830Y-63521632D01*
X245826866Y-63503219D01*
X245839654Y-63485976D01*
X245854070Y-63470070D01*
X245869976Y-63455654D01*
X245887219Y-63442866D01*
X245905632Y-63431830D01*
X245925038Y-63422651D01*
X245945250Y-63415419D01*
X245966074Y-63410203D01*
X245987309Y-63407053D01*
X246008750Y-63406000D01*
X246446250Y-63406000D01*
X246467691Y-63407053D01*
G37*
G36*
X222388691Y-93379053D02*
G01*
X222409926Y-93382203D01*
X222430750Y-93387419D01*
X222450962Y-93394651D01*
X222470368Y-93403830D01*
X222488781Y-93414866D01*
X222506024Y-93427654D01*
X222521930Y-93442070D01*
X222536346Y-93457976D01*
X222549134Y-93475219D01*
X222560170Y-93493632D01*
X222569349Y-93513038D01*
X222576581Y-93533250D01*
X222581797Y-93554074D01*
X222584947Y-93575309D01*
X222586000Y-93596750D01*
X222586000Y-94109250D01*
X222584947Y-94130691D01*
X222581797Y-94151926D01*
X222576581Y-94172750D01*
X222569349Y-94192962D01*
X222560170Y-94212368D01*
X222549134Y-94230781D01*
X222536346Y-94248024D01*
X222521930Y-94263930D01*
X222506024Y-94278346D01*
X222488781Y-94291134D01*
X222470368Y-94302170D01*
X222450962Y-94311349D01*
X222430750Y-94318581D01*
X222409926Y-94323797D01*
X222388691Y-94326947D01*
X222367250Y-94328000D01*
X221929750Y-94328000D01*
X221908309Y-94326947D01*
X221887074Y-94323797D01*
X221866250Y-94318581D01*
X221846038Y-94311349D01*
X221826632Y-94302170D01*
X221808219Y-94291134D01*
X221790976Y-94278346D01*
X221775070Y-94263930D01*
X221760654Y-94248024D01*
X221747866Y-94230781D01*
X221736830Y-94212368D01*
X221727651Y-94192962D01*
X221720419Y-94172750D01*
X221715203Y-94151926D01*
X221712053Y-94130691D01*
X221711000Y-94109250D01*
X221711000Y-93596750D01*
X221712053Y-93575309D01*
X221715203Y-93554074D01*
X221720419Y-93533250D01*
X221727651Y-93513038D01*
X221736830Y-93493632D01*
X221747866Y-93475219D01*
X221760654Y-93457976D01*
X221775070Y-93442070D01*
X221790976Y-93427654D01*
X221808219Y-93414866D01*
X221826632Y-93403830D01*
X221846038Y-93394651D01*
X221866250Y-93387419D01*
X221887074Y-93382203D01*
X221908309Y-93379053D01*
X221929750Y-93378000D01*
X222367250Y-93378000D01*
X222388691Y-93379053D01*
G37*
G36*
X220813691Y-93379053D02*
G01*
X220834926Y-93382203D01*
X220855750Y-93387419D01*
X220875962Y-93394651D01*
X220895368Y-93403830D01*
X220913781Y-93414866D01*
X220931024Y-93427654D01*
X220946930Y-93442070D01*
X220961346Y-93457976D01*
X220974134Y-93475219D01*
X220985170Y-93493632D01*
X220994349Y-93513038D01*
X221001581Y-93533250D01*
X221006797Y-93554074D01*
X221009947Y-93575309D01*
X221011000Y-93596750D01*
X221011000Y-94109250D01*
X221009947Y-94130691D01*
X221006797Y-94151926D01*
X221001581Y-94172750D01*
X220994349Y-94192962D01*
X220985170Y-94212368D01*
X220974134Y-94230781D01*
X220961346Y-94248024D01*
X220946930Y-94263930D01*
X220931024Y-94278346D01*
X220913781Y-94291134D01*
X220895368Y-94302170D01*
X220875962Y-94311349D01*
X220855750Y-94318581D01*
X220834926Y-94323797D01*
X220813691Y-94326947D01*
X220792250Y-94328000D01*
X220354750Y-94328000D01*
X220333309Y-94326947D01*
X220312074Y-94323797D01*
X220291250Y-94318581D01*
X220271038Y-94311349D01*
X220251632Y-94302170D01*
X220233219Y-94291134D01*
X220215976Y-94278346D01*
X220200070Y-94263930D01*
X220185654Y-94248024D01*
X220172866Y-94230781D01*
X220161830Y-94212368D01*
X220152651Y-94192962D01*
X220145419Y-94172750D01*
X220140203Y-94151926D01*
X220137053Y-94130691D01*
X220136000Y-94109250D01*
X220136000Y-93596750D01*
X220137053Y-93575309D01*
X220140203Y-93554074D01*
X220145419Y-93533250D01*
X220152651Y-93513038D01*
X220161830Y-93493632D01*
X220172866Y-93475219D01*
X220185654Y-93457976D01*
X220200070Y-93442070D01*
X220215976Y-93427654D01*
X220233219Y-93414866D01*
X220251632Y-93403830D01*
X220271038Y-93394651D01*
X220291250Y-93387419D01*
X220312074Y-93382203D01*
X220333309Y-93379053D01*
X220354750Y-93378000D01*
X220792250Y-93378000D01*
X220813691Y-93379053D01*
G37*
G36*
X222388691Y-95665053D02*
G01*
X222409926Y-95668203D01*
X222430750Y-95673419D01*
X222450962Y-95680651D01*
X222470368Y-95689830D01*
X222488781Y-95700866D01*
X222506024Y-95713654D01*
X222521930Y-95728070D01*
X222536346Y-95743976D01*
X222549134Y-95761219D01*
X222560170Y-95779632D01*
X222569349Y-95799038D01*
X222576581Y-95819250D01*
X222581797Y-95840074D01*
X222584947Y-95861309D01*
X222586000Y-95882750D01*
X222586000Y-96395250D01*
X222584947Y-96416691D01*
X222581797Y-96437926D01*
X222576581Y-96458750D01*
X222569349Y-96478962D01*
X222560170Y-96498368D01*
X222549134Y-96516781D01*
X222536346Y-96534024D01*
X222521930Y-96549930D01*
X222506024Y-96564346D01*
X222488781Y-96577134D01*
X222470368Y-96588170D01*
X222450962Y-96597349D01*
X222430750Y-96604581D01*
X222409926Y-96609797D01*
X222388691Y-96612947D01*
X222367250Y-96614000D01*
X221929750Y-96614000D01*
X221908309Y-96612947D01*
X221887074Y-96609797D01*
X221866250Y-96604581D01*
X221846038Y-96597349D01*
X221826632Y-96588170D01*
X221808219Y-96577134D01*
X221790976Y-96564346D01*
X221775070Y-96549930D01*
X221760654Y-96534024D01*
X221747866Y-96516781D01*
X221736830Y-96498368D01*
X221727651Y-96478962D01*
X221720419Y-96458750D01*
X221715203Y-96437926D01*
X221712053Y-96416691D01*
X221711000Y-96395250D01*
X221711000Y-95882750D01*
X221712053Y-95861309D01*
X221715203Y-95840074D01*
X221720419Y-95819250D01*
X221727651Y-95799038D01*
X221736830Y-95779632D01*
X221747866Y-95761219D01*
X221760654Y-95743976D01*
X221775070Y-95728070D01*
X221790976Y-95713654D01*
X221808219Y-95700866D01*
X221826632Y-95689830D01*
X221846038Y-95680651D01*
X221866250Y-95673419D01*
X221887074Y-95668203D01*
X221908309Y-95665053D01*
X221929750Y-95664000D01*
X222367250Y-95664000D01*
X222388691Y-95665053D01*
G37*
G36*
X220813691Y-95665053D02*
G01*
X220834926Y-95668203D01*
X220855750Y-95673419D01*
X220875962Y-95680651D01*
X220895368Y-95689830D01*
X220913781Y-95700866D01*
X220931024Y-95713654D01*
X220946930Y-95728070D01*
X220961346Y-95743976D01*
X220974134Y-95761219D01*
X220985170Y-95779632D01*
X220994349Y-95799038D01*
X221001581Y-95819250D01*
X221006797Y-95840074D01*
X221009947Y-95861309D01*
X221011000Y-95882750D01*
X221011000Y-96395250D01*
X221009947Y-96416691D01*
X221006797Y-96437926D01*
X221001581Y-96458750D01*
X220994349Y-96478962D01*
X220985170Y-96498368D01*
X220974134Y-96516781D01*
X220961346Y-96534024D01*
X220946930Y-96549930D01*
X220931024Y-96564346D01*
X220913781Y-96577134D01*
X220895368Y-96588170D01*
X220875962Y-96597349D01*
X220855750Y-96604581D01*
X220834926Y-96609797D01*
X220813691Y-96612947D01*
X220792250Y-96614000D01*
X220354750Y-96614000D01*
X220333309Y-96612947D01*
X220312074Y-96609797D01*
X220291250Y-96604581D01*
X220271038Y-96597349D01*
X220251632Y-96588170D01*
X220233219Y-96577134D01*
X220215976Y-96564346D01*
X220200070Y-96549930D01*
X220185654Y-96534024D01*
X220172866Y-96516781D01*
X220161830Y-96498368D01*
X220152651Y-96478962D01*
X220145419Y-96458750D01*
X220140203Y-96437926D01*
X220137053Y-96416691D01*
X220136000Y-96395250D01*
X220136000Y-95882750D01*
X220137053Y-95861309D01*
X220140203Y-95840074D01*
X220145419Y-95819250D01*
X220152651Y-95799038D01*
X220161830Y-95779632D01*
X220172866Y-95761219D01*
X220185654Y-95743976D01*
X220200070Y-95728070D01*
X220215976Y-95713654D01*
X220233219Y-95700866D01*
X220251632Y-95689830D01*
X220271038Y-95680651D01*
X220291250Y-95673419D01*
X220312074Y-95668203D01*
X220333309Y-95665053D01*
X220354750Y-95664000D01*
X220792250Y-95664000D01*
X220813691Y-95665053D01*
G37*
G36*
X222388691Y-97951053D02*
G01*
X222409926Y-97954203D01*
X222430750Y-97959419D01*
X222450962Y-97966651D01*
X222470368Y-97975830D01*
X222488781Y-97986866D01*
X222506024Y-97999654D01*
X222521930Y-98014070D01*
X222536346Y-98029976D01*
X222549134Y-98047219D01*
X222560170Y-98065632D01*
X222569349Y-98085038D01*
X222576581Y-98105250D01*
X222581797Y-98126074D01*
X222584947Y-98147309D01*
X222586000Y-98168750D01*
X222586000Y-98681250D01*
X222584947Y-98702691D01*
X222581797Y-98723926D01*
X222576581Y-98744750D01*
X222569349Y-98764962D01*
X222560170Y-98784368D01*
X222549134Y-98802781D01*
X222536346Y-98820024D01*
X222521930Y-98835930D01*
X222506024Y-98850346D01*
X222488781Y-98863134D01*
X222470368Y-98874170D01*
X222450962Y-98883349D01*
X222430750Y-98890581D01*
X222409926Y-98895797D01*
X222388691Y-98898947D01*
X222367250Y-98900000D01*
X221929750Y-98900000D01*
X221908309Y-98898947D01*
X221887074Y-98895797D01*
X221866250Y-98890581D01*
X221846038Y-98883349D01*
X221826632Y-98874170D01*
X221808219Y-98863134D01*
X221790976Y-98850346D01*
X221775070Y-98835930D01*
X221760654Y-98820024D01*
X221747866Y-98802781D01*
X221736830Y-98784368D01*
X221727651Y-98764962D01*
X221720419Y-98744750D01*
X221715203Y-98723926D01*
X221712053Y-98702691D01*
X221711000Y-98681250D01*
X221711000Y-98168750D01*
X221712053Y-98147309D01*
X221715203Y-98126074D01*
X221720419Y-98105250D01*
X221727651Y-98085038D01*
X221736830Y-98065632D01*
X221747866Y-98047219D01*
X221760654Y-98029976D01*
X221775070Y-98014070D01*
X221790976Y-97999654D01*
X221808219Y-97986866D01*
X221826632Y-97975830D01*
X221846038Y-97966651D01*
X221866250Y-97959419D01*
X221887074Y-97954203D01*
X221908309Y-97951053D01*
X221929750Y-97950000D01*
X222367250Y-97950000D01*
X222388691Y-97951053D01*
G37*
G36*
X220813691Y-97951053D02*
G01*
X220834926Y-97954203D01*
X220855750Y-97959419D01*
X220875962Y-97966651D01*
X220895368Y-97975830D01*
X220913781Y-97986866D01*
X220931024Y-97999654D01*
X220946930Y-98014070D01*
X220961346Y-98029976D01*
X220974134Y-98047219D01*
X220985170Y-98065632D01*
X220994349Y-98085038D01*
X221001581Y-98105250D01*
X221006797Y-98126074D01*
X221009947Y-98147309D01*
X221011000Y-98168750D01*
X221011000Y-98681250D01*
X221009947Y-98702691D01*
X221006797Y-98723926D01*
X221001581Y-98744750D01*
X220994349Y-98764962D01*
X220985170Y-98784368D01*
X220974134Y-98802781D01*
X220961346Y-98820024D01*
X220946930Y-98835930D01*
X220931024Y-98850346D01*
X220913781Y-98863134D01*
X220895368Y-98874170D01*
X220875962Y-98883349D01*
X220855750Y-98890581D01*
X220834926Y-98895797D01*
X220813691Y-98898947D01*
X220792250Y-98900000D01*
X220354750Y-98900000D01*
X220333309Y-98898947D01*
X220312074Y-98895797D01*
X220291250Y-98890581D01*
X220271038Y-98883349D01*
X220251632Y-98874170D01*
X220233219Y-98863134D01*
X220215976Y-98850346D01*
X220200070Y-98835930D01*
X220185654Y-98820024D01*
X220172866Y-98802781D01*
X220161830Y-98784368D01*
X220152651Y-98764962D01*
X220145419Y-98744750D01*
X220140203Y-98723926D01*
X220137053Y-98702691D01*
X220136000Y-98681250D01*
X220136000Y-98168750D01*
X220137053Y-98147309D01*
X220140203Y-98126074D01*
X220145419Y-98105250D01*
X220152651Y-98085038D01*
X220161830Y-98065632D01*
X220172866Y-98047219D01*
X220185654Y-98029976D01*
X220200070Y-98014070D01*
X220215976Y-97999654D01*
X220233219Y-97986866D01*
X220251632Y-97975830D01*
X220271038Y-97966651D01*
X220291250Y-97959419D01*
X220312074Y-97954203D01*
X220333309Y-97951053D01*
X220354750Y-97950000D01*
X220792250Y-97950000D01*
X220813691Y-97951053D01*
G37*
G36*
X224120142Y-93154174D02*
G01*
X224143803Y-93157684D01*
X224167007Y-93163496D01*
X224189529Y-93171554D01*
X224211153Y-93181782D01*
X224231670Y-93194079D01*
X224250883Y-93208329D01*
X224268607Y-93224393D01*
X224284671Y-93242117D01*
X224298921Y-93261330D01*
X224311218Y-93281847D01*
X224321446Y-93303471D01*
X224329504Y-93325993D01*
X224335316Y-93349197D01*
X224338826Y-93372858D01*
X224340000Y-93396750D01*
X224340000Y-94309250D01*
X224338826Y-94333142D01*
X224335316Y-94356803D01*
X224329504Y-94380007D01*
X224321446Y-94402529D01*
X224311218Y-94424153D01*
X224298921Y-94444670D01*
X224284671Y-94463883D01*
X224268607Y-94481607D01*
X224250883Y-94497671D01*
X224231670Y-94511921D01*
X224211153Y-94524218D01*
X224189529Y-94534446D01*
X224167007Y-94542504D01*
X224143803Y-94548316D01*
X224120142Y-94551826D01*
X224096250Y-94553000D01*
X223608750Y-94553000D01*
X223584858Y-94551826D01*
X223561197Y-94548316D01*
X223537993Y-94542504D01*
X223515471Y-94534446D01*
X223493847Y-94524218D01*
X223473330Y-94511921D01*
X223454117Y-94497671D01*
X223436393Y-94481607D01*
X223420329Y-94463883D01*
X223406079Y-94444670D01*
X223393782Y-94424153D01*
X223383554Y-94402529D01*
X223375496Y-94380007D01*
X223369684Y-94356803D01*
X223366174Y-94333142D01*
X223365000Y-94309250D01*
X223365000Y-93396750D01*
X223366174Y-93372858D01*
X223369684Y-93349197D01*
X223375496Y-93325993D01*
X223383554Y-93303471D01*
X223393782Y-93281847D01*
X223406079Y-93261330D01*
X223420329Y-93242117D01*
X223436393Y-93224393D01*
X223454117Y-93208329D01*
X223473330Y-93194079D01*
X223493847Y-93181782D01*
X223515471Y-93171554D01*
X223537993Y-93163496D01*
X223561197Y-93157684D01*
X223584858Y-93154174D01*
X223608750Y-93153000D01*
X224096250Y-93153000D01*
X224120142Y-93154174D01*
G37*
G36*
X225995142Y-93154174D02*
G01*
X226018803Y-93157684D01*
X226042007Y-93163496D01*
X226064529Y-93171554D01*
X226086153Y-93181782D01*
X226106670Y-93194079D01*
X226125883Y-93208329D01*
X226143607Y-93224393D01*
X226159671Y-93242117D01*
X226173921Y-93261330D01*
X226186218Y-93281847D01*
X226196446Y-93303471D01*
X226204504Y-93325993D01*
X226210316Y-93349197D01*
X226213826Y-93372858D01*
X226215000Y-93396750D01*
X226215000Y-94309250D01*
X226213826Y-94333142D01*
X226210316Y-94356803D01*
X226204504Y-94380007D01*
X226196446Y-94402529D01*
X226186218Y-94424153D01*
X226173921Y-94444670D01*
X226159671Y-94463883D01*
X226143607Y-94481607D01*
X226125883Y-94497671D01*
X226106670Y-94511921D01*
X226086153Y-94524218D01*
X226064529Y-94534446D01*
X226042007Y-94542504D01*
X226018803Y-94548316D01*
X225995142Y-94551826D01*
X225971250Y-94553000D01*
X225483750Y-94553000D01*
X225459858Y-94551826D01*
X225436197Y-94548316D01*
X225412993Y-94542504D01*
X225390471Y-94534446D01*
X225368847Y-94524218D01*
X225348330Y-94511921D01*
X225329117Y-94497671D01*
X225311393Y-94481607D01*
X225295329Y-94463883D01*
X225281079Y-94444670D01*
X225268782Y-94424153D01*
X225258554Y-94402529D01*
X225250496Y-94380007D01*
X225244684Y-94356803D01*
X225241174Y-94333142D01*
X225240000Y-94309250D01*
X225240000Y-93396750D01*
X225241174Y-93372858D01*
X225244684Y-93349197D01*
X225250496Y-93325993D01*
X225258554Y-93303471D01*
X225268782Y-93281847D01*
X225281079Y-93261330D01*
X225295329Y-93242117D01*
X225311393Y-93224393D01*
X225329117Y-93208329D01*
X225348330Y-93194079D01*
X225368847Y-93181782D01*
X225390471Y-93171554D01*
X225412993Y-93163496D01*
X225436197Y-93157684D01*
X225459858Y-93154174D01*
X225483750Y-93153000D01*
X225971250Y-93153000D01*
X225995142Y-93154174D01*
G37*
G36*
X224120142Y-95440174D02*
G01*
X224143803Y-95443684D01*
X224167007Y-95449496D01*
X224189529Y-95457554D01*
X224211153Y-95467782D01*
X224231670Y-95480079D01*
X224250883Y-95494329D01*
X224268607Y-95510393D01*
X224284671Y-95528117D01*
X224298921Y-95547330D01*
X224311218Y-95567847D01*
X224321446Y-95589471D01*
X224329504Y-95611993D01*
X224335316Y-95635197D01*
X224338826Y-95658858D01*
X224340000Y-95682750D01*
X224340000Y-96595250D01*
X224338826Y-96619142D01*
X224335316Y-96642803D01*
X224329504Y-96666007D01*
X224321446Y-96688529D01*
X224311218Y-96710153D01*
X224298921Y-96730670D01*
X224284671Y-96749883D01*
X224268607Y-96767607D01*
X224250883Y-96783671D01*
X224231670Y-96797921D01*
X224211153Y-96810218D01*
X224189529Y-96820446D01*
X224167007Y-96828504D01*
X224143803Y-96834316D01*
X224120142Y-96837826D01*
X224096250Y-96839000D01*
X223608750Y-96839000D01*
X223584858Y-96837826D01*
X223561197Y-96834316D01*
X223537993Y-96828504D01*
X223515471Y-96820446D01*
X223493847Y-96810218D01*
X223473330Y-96797921D01*
X223454117Y-96783671D01*
X223436393Y-96767607D01*
X223420329Y-96749883D01*
X223406079Y-96730670D01*
X223393782Y-96710153D01*
X223383554Y-96688529D01*
X223375496Y-96666007D01*
X223369684Y-96642803D01*
X223366174Y-96619142D01*
X223365000Y-96595250D01*
X223365000Y-95682750D01*
X223366174Y-95658858D01*
X223369684Y-95635197D01*
X223375496Y-95611993D01*
X223383554Y-95589471D01*
X223393782Y-95567847D01*
X223406079Y-95547330D01*
X223420329Y-95528117D01*
X223436393Y-95510393D01*
X223454117Y-95494329D01*
X223473330Y-95480079D01*
X223493847Y-95467782D01*
X223515471Y-95457554D01*
X223537993Y-95449496D01*
X223561197Y-95443684D01*
X223584858Y-95440174D01*
X223608750Y-95439000D01*
X224096250Y-95439000D01*
X224120142Y-95440174D01*
G37*
G36*
X225995142Y-95440174D02*
G01*
X226018803Y-95443684D01*
X226042007Y-95449496D01*
X226064529Y-95457554D01*
X226086153Y-95467782D01*
X226106670Y-95480079D01*
X226125883Y-95494329D01*
X226143607Y-95510393D01*
X226159671Y-95528117D01*
X226173921Y-95547330D01*
X226186218Y-95567847D01*
X226196446Y-95589471D01*
X226204504Y-95611993D01*
X226210316Y-95635197D01*
X226213826Y-95658858D01*
X226215000Y-95682750D01*
X226215000Y-96595250D01*
X226213826Y-96619142D01*
X226210316Y-96642803D01*
X226204504Y-96666007D01*
X226196446Y-96688529D01*
X226186218Y-96710153D01*
X226173921Y-96730670D01*
X226159671Y-96749883D01*
X226143607Y-96767607D01*
X226125883Y-96783671D01*
X226106670Y-96797921D01*
X226086153Y-96810218D01*
X226064529Y-96820446D01*
X226042007Y-96828504D01*
X226018803Y-96834316D01*
X225995142Y-96837826D01*
X225971250Y-96839000D01*
X225483750Y-96839000D01*
X225459858Y-96837826D01*
X225436197Y-96834316D01*
X225412993Y-96828504D01*
X225390471Y-96820446D01*
X225368847Y-96810218D01*
X225348330Y-96797921D01*
X225329117Y-96783671D01*
X225311393Y-96767607D01*
X225295329Y-96749883D01*
X225281079Y-96730670D01*
X225268782Y-96710153D01*
X225258554Y-96688529D01*
X225250496Y-96666007D01*
X225244684Y-96642803D01*
X225241174Y-96619142D01*
X225240000Y-96595250D01*
X225240000Y-95682750D01*
X225241174Y-95658858D01*
X225244684Y-95635197D01*
X225250496Y-95611993D01*
X225258554Y-95589471D01*
X225268782Y-95567847D01*
X225281079Y-95547330D01*
X225295329Y-95528117D01*
X225311393Y-95510393D01*
X225329117Y-95494329D01*
X225348330Y-95480079D01*
X225368847Y-95467782D01*
X225390471Y-95457554D01*
X225412993Y-95449496D01*
X225436197Y-95443684D01*
X225459858Y-95440174D01*
X225483750Y-95439000D01*
X225971250Y-95439000D01*
X225995142Y-95440174D01*
G37*
G36*
X224120142Y-97726174D02*
G01*
X224143803Y-97729684D01*
X224167007Y-97735496D01*
X224189529Y-97743554D01*
X224211153Y-97753782D01*
X224231670Y-97766079D01*
X224250883Y-97780329D01*
X224268607Y-97796393D01*
X224284671Y-97814117D01*
X224298921Y-97833330D01*
X224311218Y-97853847D01*
X224321446Y-97875471D01*
X224329504Y-97897993D01*
X224335316Y-97921197D01*
X224338826Y-97944858D01*
X224340000Y-97968750D01*
X224340000Y-98881250D01*
X224338826Y-98905142D01*
X224335316Y-98928803D01*
X224329504Y-98952007D01*
X224321446Y-98974529D01*
X224311218Y-98996153D01*
X224298921Y-99016670D01*
X224284671Y-99035883D01*
X224268607Y-99053607D01*
X224250883Y-99069671D01*
X224231670Y-99083921D01*
X224211153Y-99096218D01*
X224189529Y-99106446D01*
X224167007Y-99114504D01*
X224143803Y-99120316D01*
X224120142Y-99123826D01*
X224096250Y-99125000D01*
X223608750Y-99125000D01*
X223584858Y-99123826D01*
X223561197Y-99120316D01*
X223537993Y-99114504D01*
X223515471Y-99106446D01*
X223493847Y-99096218D01*
X223473330Y-99083921D01*
X223454117Y-99069671D01*
X223436393Y-99053607D01*
X223420329Y-99035883D01*
X223406079Y-99016670D01*
X223393782Y-98996153D01*
X223383554Y-98974529D01*
X223375496Y-98952007D01*
X223369684Y-98928803D01*
X223366174Y-98905142D01*
X223365000Y-98881250D01*
X223365000Y-97968750D01*
X223366174Y-97944858D01*
X223369684Y-97921197D01*
X223375496Y-97897993D01*
X223383554Y-97875471D01*
X223393782Y-97853847D01*
X223406079Y-97833330D01*
X223420329Y-97814117D01*
X223436393Y-97796393D01*
X223454117Y-97780329D01*
X223473330Y-97766079D01*
X223493847Y-97753782D01*
X223515471Y-97743554D01*
X223537993Y-97735496D01*
X223561197Y-97729684D01*
X223584858Y-97726174D01*
X223608750Y-97725000D01*
X224096250Y-97725000D01*
X224120142Y-97726174D01*
G37*
G36*
X225995142Y-97726174D02*
G01*
X226018803Y-97729684D01*
X226042007Y-97735496D01*
X226064529Y-97743554D01*
X226086153Y-97753782D01*
X226106670Y-97766079D01*
X226125883Y-97780329D01*
X226143607Y-97796393D01*
X226159671Y-97814117D01*
X226173921Y-97833330D01*
X226186218Y-97853847D01*
X226196446Y-97875471D01*
X226204504Y-97897993D01*
X226210316Y-97921197D01*
X226213826Y-97944858D01*
X226215000Y-97968750D01*
X226215000Y-98881250D01*
X226213826Y-98905142D01*
X226210316Y-98928803D01*
X226204504Y-98952007D01*
X226196446Y-98974529D01*
X226186218Y-98996153D01*
X226173921Y-99016670D01*
X226159671Y-99035883D01*
X226143607Y-99053607D01*
X226125883Y-99069671D01*
X226106670Y-99083921D01*
X226086153Y-99096218D01*
X226064529Y-99106446D01*
X226042007Y-99114504D01*
X226018803Y-99120316D01*
X225995142Y-99123826D01*
X225971250Y-99125000D01*
X225483750Y-99125000D01*
X225459858Y-99123826D01*
X225436197Y-99120316D01*
X225412993Y-99114504D01*
X225390471Y-99106446D01*
X225368847Y-99096218D01*
X225348330Y-99083921D01*
X225329117Y-99069671D01*
X225311393Y-99053607D01*
X225295329Y-99035883D01*
X225281079Y-99016670D01*
X225268782Y-98996153D01*
X225258554Y-98974529D01*
X225250496Y-98952007D01*
X225244684Y-98928803D01*
X225241174Y-98905142D01*
X225240000Y-98881250D01*
X225240000Y-97968750D01*
X225241174Y-97944858D01*
X225244684Y-97921197D01*
X225250496Y-97897993D01*
X225258554Y-97875471D01*
X225268782Y-97853847D01*
X225281079Y-97833330D01*
X225295329Y-97814117D01*
X225311393Y-97796393D01*
X225329117Y-97780329D01*
X225348330Y-97766079D01*
X225368847Y-97753782D01*
X225390471Y-97743554D01*
X225412993Y-97735496D01*
X225436197Y-97729684D01*
X225459858Y-97726174D01*
X225483750Y-97725000D01*
X225971250Y-97725000D01*
X225995142Y-97726174D01*
G37*
D12*
X246446000Y-76878000D03*
X248346000Y-76878000D03*
X248346000Y-79078000D03*
X247396000Y-79078000D03*
X246446000Y-79078000D03*
D13*
X241935000Y-65405000D03*
X239395000Y-65405000D03*
X236855000Y-65405000D03*
X234315000Y-65405000D03*
X234315000Y-74295000D03*
X236855000Y-74295000D03*
X239395000Y-74295000D03*
X241935000Y-74295000D03*
D14*
X213585000Y-56785000D03*
X224565000Y-56785000D03*
D15*
X216575000Y-59585000D03*
X217575000Y-59585000D03*
X218575000Y-59585000D03*
X219575000Y-59585000D03*
X220575000Y-59585000D03*
X221575000Y-59585000D03*
D14*
X232635000Y-56785000D03*
X243615000Y-56785000D03*
D15*
X235625000Y-59585000D03*
X236625000Y-59585000D03*
X237625000Y-59585000D03*
X238625000Y-59585000D03*
X239625000Y-59585000D03*
X240625000Y-59585000D03*
D16*
X216535000Y-69895000D03*
X216535000Y-65995000D03*
X217805000Y-69895000D03*
X217805000Y-65995000D03*
X219075000Y-69895000D03*
X219075000Y-65995000D03*
X220345000Y-69895000D03*
X220345000Y-65995000D03*
X221615000Y-69895000D03*
X221615000Y-65995000D03*
D11*
G36*
X237415626Y-84687301D02*
G01*
X237421693Y-84688201D01*
X237427643Y-84689691D01*
X237433418Y-84691758D01*
X237438962Y-84694380D01*
X237444223Y-84697533D01*
X237449150Y-84701187D01*
X237453694Y-84705306D01*
X237457813Y-84709850D01*
X237461467Y-84714777D01*
X237464620Y-84720038D01*
X237467242Y-84725582D01*
X237469309Y-84731357D01*
X237470799Y-84737307D01*
X237471699Y-84743374D01*
X237472000Y-84749500D01*
X237472000Y-84874500D01*
X237471699Y-84880626D01*
X237470799Y-84886693D01*
X237469309Y-84892643D01*
X237467242Y-84898418D01*
X237464620Y-84903962D01*
X237461467Y-84909223D01*
X237457813Y-84914150D01*
X237453694Y-84918694D01*
X237449150Y-84922813D01*
X237444223Y-84926467D01*
X237438962Y-84929620D01*
X237433418Y-84932242D01*
X237427643Y-84934309D01*
X237421693Y-84935799D01*
X237415626Y-84936699D01*
X237409500Y-84937000D01*
X236734500Y-84937000D01*
X236728374Y-84936699D01*
X236722307Y-84935799D01*
X236716357Y-84934309D01*
X236710582Y-84932242D01*
X236705038Y-84929620D01*
X236699777Y-84926467D01*
X236694850Y-84922813D01*
X236690306Y-84918694D01*
X236686187Y-84914150D01*
X236682533Y-84909223D01*
X236679380Y-84903962D01*
X236676758Y-84898418D01*
X236674691Y-84892643D01*
X236673201Y-84886693D01*
X236672301Y-84880626D01*
X236672000Y-84874500D01*
X236672000Y-84749500D01*
X236672301Y-84743374D01*
X236673201Y-84737307D01*
X236674691Y-84731357D01*
X236676758Y-84725582D01*
X236679380Y-84720038D01*
X236682533Y-84714777D01*
X236686187Y-84709850D01*
X236690306Y-84705306D01*
X236694850Y-84701187D01*
X236699777Y-84697533D01*
X236705038Y-84694380D01*
X236710582Y-84691758D01*
X236716357Y-84689691D01*
X236722307Y-84688201D01*
X236728374Y-84687301D01*
X236734500Y-84687000D01*
X237409500Y-84687000D01*
X237415626Y-84687301D01*
G37*
G36*
X237415626Y-84187301D02*
G01*
X237421693Y-84188201D01*
X237427643Y-84189691D01*
X237433418Y-84191758D01*
X237438962Y-84194380D01*
X237444223Y-84197533D01*
X237449150Y-84201187D01*
X237453694Y-84205306D01*
X237457813Y-84209850D01*
X237461467Y-84214777D01*
X237464620Y-84220038D01*
X237467242Y-84225582D01*
X237469309Y-84231357D01*
X237470799Y-84237307D01*
X237471699Y-84243374D01*
X237472000Y-84249500D01*
X237472000Y-84374500D01*
X237471699Y-84380626D01*
X237470799Y-84386693D01*
X237469309Y-84392643D01*
X237467242Y-84398418D01*
X237464620Y-84403962D01*
X237461467Y-84409223D01*
X237457813Y-84414150D01*
X237453694Y-84418694D01*
X237449150Y-84422813D01*
X237444223Y-84426467D01*
X237438962Y-84429620D01*
X237433418Y-84432242D01*
X237427643Y-84434309D01*
X237421693Y-84435799D01*
X237415626Y-84436699D01*
X237409500Y-84437000D01*
X236734500Y-84437000D01*
X236728374Y-84436699D01*
X236722307Y-84435799D01*
X236716357Y-84434309D01*
X236710582Y-84432242D01*
X236705038Y-84429620D01*
X236699777Y-84426467D01*
X236694850Y-84422813D01*
X236690306Y-84418694D01*
X236686187Y-84414150D01*
X236682533Y-84409223D01*
X236679380Y-84403962D01*
X236676758Y-84398418D01*
X236674691Y-84392643D01*
X236673201Y-84386693D01*
X236672301Y-84380626D01*
X236672000Y-84374500D01*
X236672000Y-84249500D01*
X236672301Y-84243374D01*
X236673201Y-84237307D01*
X236674691Y-84231357D01*
X236676758Y-84225582D01*
X236679380Y-84220038D01*
X236682533Y-84214777D01*
X236686187Y-84209850D01*
X236690306Y-84205306D01*
X236694850Y-84201187D01*
X236699777Y-84197533D01*
X236705038Y-84194380D01*
X236710582Y-84191758D01*
X236716357Y-84189691D01*
X236722307Y-84188201D01*
X236728374Y-84187301D01*
X236734500Y-84187000D01*
X237409500Y-84187000D01*
X237415626Y-84187301D01*
G37*
G36*
X237415626Y-83687301D02*
G01*
X237421693Y-83688201D01*
X237427643Y-83689691D01*
X237433418Y-83691758D01*
X237438962Y-83694380D01*
X237444223Y-83697533D01*
X237449150Y-83701187D01*
X237453694Y-83705306D01*
X237457813Y-83709850D01*
X237461467Y-83714777D01*
X237464620Y-83720038D01*
X237467242Y-83725582D01*
X237469309Y-83731357D01*
X237470799Y-83737307D01*
X237471699Y-83743374D01*
X237472000Y-83749500D01*
X237472000Y-83874500D01*
X237471699Y-83880626D01*
X237470799Y-83886693D01*
X237469309Y-83892643D01*
X237467242Y-83898418D01*
X237464620Y-83903962D01*
X237461467Y-83909223D01*
X237457813Y-83914150D01*
X237453694Y-83918694D01*
X237449150Y-83922813D01*
X237444223Y-83926467D01*
X237438962Y-83929620D01*
X237433418Y-83932242D01*
X237427643Y-83934309D01*
X237421693Y-83935799D01*
X237415626Y-83936699D01*
X237409500Y-83937000D01*
X236734500Y-83937000D01*
X236728374Y-83936699D01*
X236722307Y-83935799D01*
X236716357Y-83934309D01*
X236710582Y-83932242D01*
X236705038Y-83929620D01*
X236699777Y-83926467D01*
X236694850Y-83922813D01*
X236690306Y-83918694D01*
X236686187Y-83914150D01*
X236682533Y-83909223D01*
X236679380Y-83903962D01*
X236676758Y-83898418D01*
X236674691Y-83892643D01*
X236673201Y-83886693D01*
X236672301Y-83880626D01*
X236672000Y-83874500D01*
X236672000Y-83749500D01*
X236672301Y-83743374D01*
X236673201Y-83737307D01*
X236674691Y-83731357D01*
X236676758Y-83725582D01*
X236679380Y-83720038D01*
X236682533Y-83714777D01*
X236686187Y-83709850D01*
X236690306Y-83705306D01*
X236694850Y-83701187D01*
X236699777Y-83697533D01*
X236705038Y-83694380D01*
X236710582Y-83691758D01*
X236716357Y-83689691D01*
X236722307Y-83688201D01*
X236728374Y-83687301D01*
X236734500Y-83687000D01*
X237409500Y-83687000D01*
X237415626Y-83687301D01*
G37*
G36*
X237415626Y-83187301D02*
G01*
X237421693Y-83188201D01*
X237427643Y-83189691D01*
X237433418Y-83191758D01*
X237438962Y-83194380D01*
X237444223Y-83197533D01*
X237449150Y-83201187D01*
X237453694Y-83205306D01*
X237457813Y-83209850D01*
X237461467Y-83214777D01*
X237464620Y-83220038D01*
X237467242Y-83225582D01*
X237469309Y-83231357D01*
X237470799Y-83237307D01*
X237471699Y-83243374D01*
X237472000Y-83249500D01*
X237472000Y-83374500D01*
X237471699Y-83380626D01*
X237470799Y-83386693D01*
X237469309Y-83392643D01*
X237467242Y-83398418D01*
X237464620Y-83403962D01*
X237461467Y-83409223D01*
X237457813Y-83414150D01*
X237453694Y-83418694D01*
X237449150Y-83422813D01*
X237444223Y-83426467D01*
X237438962Y-83429620D01*
X237433418Y-83432242D01*
X237427643Y-83434309D01*
X237421693Y-83435799D01*
X237415626Y-83436699D01*
X237409500Y-83437000D01*
X236734500Y-83437000D01*
X236728374Y-83436699D01*
X236722307Y-83435799D01*
X236716357Y-83434309D01*
X236710582Y-83432242D01*
X236705038Y-83429620D01*
X236699777Y-83426467D01*
X236694850Y-83422813D01*
X236690306Y-83418694D01*
X236686187Y-83414150D01*
X236682533Y-83409223D01*
X236679380Y-83403962D01*
X236676758Y-83398418D01*
X236674691Y-83392643D01*
X236673201Y-83386693D01*
X236672301Y-83380626D01*
X236672000Y-83374500D01*
X236672000Y-83249500D01*
X236672301Y-83243374D01*
X236673201Y-83237307D01*
X236674691Y-83231357D01*
X236676758Y-83225582D01*
X236679380Y-83220038D01*
X236682533Y-83214777D01*
X236686187Y-83209850D01*
X236690306Y-83205306D01*
X236694850Y-83201187D01*
X236699777Y-83197533D01*
X236705038Y-83194380D01*
X236710582Y-83191758D01*
X236716357Y-83189691D01*
X236722307Y-83188201D01*
X236728374Y-83187301D01*
X236734500Y-83187000D01*
X237409500Y-83187000D01*
X237415626Y-83187301D01*
G37*
G36*
X237415626Y-82687301D02*
G01*
X237421693Y-82688201D01*
X237427643Y-82689691D01*
X237433418Y-82691758D01*
X237438962Y-82694380D01*
X237444223Y-82697533D01*
X237449150Y-82701187D01*
X237453694Y-82705306D01*
X237457813Y-82709850D01*
X237461467Y-82714777D01*
X237464620Y-82720038D01*
X237467242Y-82725582D01*
X237469309Y-82731357D01*
X237470799Y-82737307D01*
X237471699Y-82743374D01*
X237472000Y-82749500D01*
X237472000Y-82874500D01*
X237471699Y-82880626D01*
X237470799Y-82886693D01*
X237469309Y-82892643D01*
X237467242Y-82898418D01*
X237464620Y-82903962D01*
X237461467Y-82909223D01*
X237457813Y-82914150D01*
X237453694Y-82918694D01*
X237449150Y-82922813D01*
X237444223Y-82926467D01*
X237438962Y-82929620D01*
X237433418Y-82932242D01*
X237427643Y-82934309D01*
X237421693Y-82935799D01*
X237415626Y-82936699D01*
X237409500Y-82937000D01*
X236734500Y-82937000D01*
X236728374Y-82936699D01*
X236722307Y-82935799D01*
X236716357Y-82934309D01*
X236710582Y-82932242D01*
X236705038Y-82929620D01*
X236699777Y-82926467D01*
X236694850Y-82922813D01*
X236690306Y-82918694D01*
X236686187Y-82914150D01*
X236682533Y-82909223D01*
X236679380Y-82903962D01*
X236676758Y-82898418D01*
X236674691Y-82892643D01*
X236673201Y-82886693D01*
X236672301Y-82880626D01*
X236672000Y-82874500D01*
X236672000Y-82749500D01*
X236672301Y-82743374D01*
X236673201Y-82737307D01*
X236674691Y-82731357D01*
X236676758Y-82725582D01*
X236679380Y-82720038D01*
X236682533Y-82714777D01*
X236686187Y-82709850D01*
X236690306Y-82705306D01*
X236694850Y-82701187D01*
X236699777Y-82697533D01*
X236705038Y-82694380D01*
X236710582Y-82691758D01*
X236716357Y-82689691D01*
X236722307Y-82688201D01*
X236728374Y-82687301D01*
X236734500Y-82687000D01*
X237409500Y-82687000D01*
X237415626Y-82687301D01*
G37*
G36*
X237415626Y-82187301D02*
G01*
X237421693Y-82188201D01*
X237427643Y-82189691D01*
X237433418Y-82191758D01*
X237438962Y-82194380D01*
X237444223Y-82197533D01*
X237449150Y-82201187D01*
X237453694Y-82205306D01*
X237457813Y-82209850D01*
X237461467Y-82214777D01*
X237464620Y-82220038D01*
X237467242Y-82225582D01*
X237469309Y-82231357D01*
X237470799Y-82237307D01*
X237471699Y-82243374D01*
X237472000Y-82249500D01*
X237472000Y-82374500D01*
X237471699Y-82380626D01*
X237470799Y-82386693D01*
X237469309Y-82392643D01*
X237467242Y-82398418D01*
X237464620Y-82403962D01*
X237461467Y-82409223D01*
X237457813Y-82414150D01*
X237453694Y-82418694D01*
X237449150Y-82422813D01*
X237444223Y-82426467D01*
X237438962Y-82429620D01*
X237433418Y-82432242D01*
X237427643Y-82434309D01*
X237421693Y-82435799D01*
X237415626Y-82436699D01*
X237409500Y-82437000D01*
X236734500Y-82437000D01*
X236728374Y-82436699D01*
X236722307Y-82435799D01*
X236716357Y-82434309D01*
X236710582Y-82432242D01*
X236705038Y-82429620D01*
X236699777Y-82426467D01*
X236694850Y-82422813D01*
X236690306Y-82418694D01*
X236686187Y-82414150D01*
X236682533Y-82409223D01*
X236679380Y-82403962D01*
X236676758Y-82398418D01*
X236674691Y-82392643D01*
X236673201Y-82386693D01*
X236672301Y-82380626D01*
X236672000Y-82374500D01*
X236672000Y-82249500D01*
X236672301Y-82243374D01*
X236673201Y-82237307D01*
X236674691Y-82231357D01*
X236676758Y-82225582D01*
X236679380Y-82220038D01*
X236682533Y-82214777D01*
X236686187Y-82209850D01*
X236690306Y-82205306D01*
X236694850Y-82201187D01*
X236699777Y-82197533D01*
X236705038Y-82194380D01*
X236710582Y-82191758D01*
X236716357Y-82189691D01*
X236722307Y-82188201D01*
X236728374Y-82187301D01*
X236734500Y-82187000D01*
X237409500Y-82187000D01*
X237415626Y-82187301D01*
G37*
G36*
X237415626Y-81687301D02*
G01*
X237421693Y-81688201D01*
X237427643Y-81689691D01*
X237433418Y-81691758D01*
X237438962Y-81694380D01*
X237444223Y-81697533D01*
X237449150Y-81701187D01*
X237453694Y-81705306D01*
X237457813Y-81709850D01*
X237461467Y-81714777D01*
X237464620Y-81720038D01*
X237467242Y-81725582D01*
X237469309Y-81731357D01*
X237470799Y-81737307D01*
X237471699Y-81743374D01*
X237472000Y-81749500D01*
X237472000Y-81874500D01*
X237471699Y-81880626D01*
X237470799Y-81886693D01*
X237469309Y-81892643D01*
X237467242Y-81898418D01*
X237464620Y-81903962D01*
X237461467Y-81909223D01*
X237457813Y-81914150D01*
X237453694Y-81918694D01*
X237449150Y-81922813D01*
X237444223Y-81926467D01*
X237438962Y-81929620D01*
X237433418Y-81932242D01*
X237427643Y-81934309D01*
X237421693Y-81935799D01*
X237415626Y-81936699D01*
X237409500Y-81937000D01*
X236734500Y-81937000D01*
X236728374Y-81936699D01*
X236722307Y-81935799D01*
X236716357Y-81934309D01*
X236710582Y-81932242D01*
X236705038Y-81929620D01*
X236699777Y-81926467D01*
X236694850Y-81922813D01*
X236690306Y-81918694D01*
X236686187Y-81914150D01*
X236682533Y-81909223D01*
X236679380Y-81903962D01*
X236676758Y-81898418D01*
X236674691Y-81892643D01*
X236673201Y-81886693D01*
X236672301Y-81880626D01*
X236672000Y-81874500D01*
X236672000Y-81749500D01*
X236672301Y-81743374D01*
X236673201Y-81737307D01*
X236674691Y-81731357D01*
X236676758Y-81725582D01*
X236679380Y-81720038D01*
X236682533Y-81714777D01*
X236686187Y-81709850D01*
X236690306Y-81705306D01*
X236694850Y-81701187D01*
X236699777Y-81697533D01*
X236705038Y-81694380D01*
X236710582Y-81691758D01*
X236716357Y-81689691D01*
X236722307Y-81688201D01*
X236728374Y-81687301D01*
X236734500Y-81687000D01*
X237409500Y-81687000D01*
X237415626Y-81687301D01*
G37*
G36*
X238090626Y-80462301D02*
G01*
X238096693Y-80463201D01*
X238102643Y-80464691D01*
X238108418Y-80466758D01*
X238113962Y-80469380D01*
X238119223Y-80472533D01*
X238124150Y-80476187D01*
X238128694Y-80480306D01*
X238132813Y-80484850D01*
X238136467Y-80489777D01*
X238139620Y-80495038D01*
X238142242Y-80500582D01*
X238144309Y-80506357D01*
X238145799Y-80512307D01*
X238146699Y-80518374D01*
X238147000Y-80524500D01*
X238147000Y-81199500D01*
X238146699Y-81205626D01*
X238145799Y-81211693D01*
X238144309Y-81217643D01*
X238142242Y-81223418D01*
X238139620Y-81228962D01*
X238136467Y-81234223D01*
X238132813Y-81239150D01*
X238128694Y-81243694D01*
X238124150Y-81247813D01*
X238119223Y-81251467D01*
X238113962Y-81254620D01*
X238108418Y-81257242D01*
X238102643Y-81259309D01*
X238096693Y-81260799D01*
X238090626Y-81261699D01*
X238084500Y-81262000D01*
X237959500Y-81262000D01*
X237953374Y-81261699D01*
X237947307Y-81260799D01*
X237941357Y-81259309D01*
X237935582Y-81257242D01*
X237930038Y-81254620D01*
X237924777Y-81251467D01*
X237919850Y-81247813D01*
X237915306Y-81243694D01*
X237911187Y-81239150D01*
X237907533Y-81234223D01*
X237904380Y-81228962D01*
X237901758Y-81223418D01*
X237899691Y-81217643D01*
X237898201Y-81211693D01*
X237897301Y-81205626D01*
X237897000Y-81199500D01*
X237897000Y-80524500D01*
X237897301Y-80518374D01*
X237898201Y-80512307D01*
X237899691Y-80506357D01*
X237901758Y-80500582D01*
X237904380Y-80495038D01*
X237907533Y-80489777D01*
X237911187Y-80484850D01*
X237915306Y-80480306D01*
X237919850Y-80476187D01*
X237924777Y-80472533D01*
X237930038Y-80469380D01*
X237935582Y-80466758D01*
X237941357Y-80464691D01*
X237947307Y-80463201D01*
X237953374Y-80462301D01*
X237959500Y-80462000D01*
X238084500Y-80462000D01*
X238090626Y-80462301D01*
G37*
G36*
X238590626Y-80462301D02*
G01*
X238596693Y-80463201D01*
X238602643Y-80464691D01*
X238608418Y-80466758D01*
X238613962Y-80469380D01*
X238619223Y-80472533D01*
X238624150Y-80476187D01*
X238628694Y-80480306D01*
X238632813Y-80484850D01*
X238636467Y-80489777D01*
X238639620Y-80495038D01*
X238642242Y-80500582D01*
X238644309Y-80506357D01*
X238645799Y-80512307D01*
X238646699Y-80518374D01*
X238647000Y-80524500D01*
X238647000Y-81199500D01*
X238646699Y-81205626D01*
X238645799Y-81211693D01*
X238644309Y-81217643D01*
X238642242Y-81223418D01*
X238639620Y-81228962D01*
X238636467Y-81234223D01*
X238632813Y-81239150D01*
X238628694Y-81243694D01*
X238624150Y-81247813D01*
X238619223Y-81251467D01*
X238613962Y-81254620D01*
X238608418Y-81257242D01*
X238602643Y-81259309D01*
X238596693Y-81260799D01*
X238590626Y-81261699D01*
X238584500Y-81262000D01*
X238459500Y-81262000D01*
X238453374Y-81261699D01*
X238447307Y-81260799D01*
X238441357Y-81259309D01*
X238435582Y-81257242D01*
X238430038Y-81254620D01*
X238424777Y-81251467D01*
X238419850Y-81247813D01*
X238415306Y-81243694D01*
X238411187Y-81239150D01*
X238407533Y-81234223D01*
X238404380Y-81228962D01*
X238401758Y-81223418D01*
X238399691Y-81217643D01*
X238398201Y-81211693D01*
X238397301Y-81205626D01*
X238397000Y-81199500D01*
X238397000Y-80524500D01*
X238397301Y-80518374D01*
X238398201Y-80512307D01*
X238399691Y-80506357D01*
X238401758Y-80500582D01*
X238404380Y-80495038D01*
X238407533Y-80489777D01*
X238411187Y-80484850D01*
X238415306Y-80480306D01*
X238419850Y-80476187D01*
X238424777Y-80472533D01*
X238430038Y-80469380D01*
X238435582Y-80466758D01*
X238441357Y-80464691D01*
X238447307Y-80463201D01*
X238453374Y-80462301D01*
X238459500Y-80462000D01*
X238584500Y-80462000D01*
X238590626Y-80462301D01*
G37*
G36*
X239090626Y-80462301D02*
G01*
X239096693Y-80463201D01*
X239102643Y-80464691D01*
X239108418Y-80466758D01*
X239113962Y-80469380D01*
X239119223Y-80472533D01*
X239124150Y-80476187D01*
X239128694Y-80480306D01*
X239132813Y-80484850D01*
X239136467Y-80489777D01*
X239139620Y-80495038D01*
X239142242Y-80500582D01*
X239144309Y-80506357D01*
X239145799Y-80512307D01*
X239146699Y-80518374D01*
X239147000Y-80524500D01*
X239147000Y-81199500D01*
X239146699Y-81205626D01*
X239145799Y-81211693D01*
X239144309Y-81217643D01*
X239142242Y-81223418D01*
X239139620Y-81228962D01*
X239136467Y-81234223D01*
X239132813Y-81239150D01*
X239128694Y-81243694D01*
X239124150Y-81247813D01*
X239119223Y-81251467D01*
X239113962Y-81254620D01*
X239108418Y-81257242D01*
X239102643Y-81259309D01*
X239096693Y-81260799D01*
X239090626Y-81261699D01*
X239084500Y-81262000D01*
X238959500Y-81262000D01*
X238953374Y-81261699D01*
X238947307Y-81260799D01*
X238941357Y-81259309D01*
X238935582Y-81257242D01*
X238930038Y-81254620D01*
X238924777Y-81251467D01*
X238919850Y-81247813D01*
X238915306Y-81243694D01*
X238911187Y-81239150D01*
X238907533Y-81234223D01*
X238904380Y-81228962D01*
X238901758Y-81223418D01*
X238899691Y-81217643D01*
X238898201Y-81211693D01*
X238897301Y-81205626D01*
X238897000Y-81199500D01*
X238897000Y-80524500D01*
X238897301Y-80518374D01*
X238898201Y-80512307D01*
X238899691Y-80506357D01*
X238901758Y-80500582D01*
X238904380Y-80495038D01*
X238907533Y-80489777D01*
X238911187Y-80484850D01*
X238915306Y-80480306D01*
X238919850Y-80476187D01*
X238924777Y-80472533D01*
X238930038Y-80469380D01*
X238935582Y-80466758D01*
X238941357Y-80464691D01*
X238947307Y-80463201D01*
X238953374Y-80462301D01*
X238959500Y-80462000D01*
X239084500Y-80462000D01*
X239090626Y-80462301D01*
G37*
G36*
X239590626Y-80462301D02*
G01*
X239596693Y-80463201D01*
X239602643Y-80464691D01*
X239608418Y-80466758D01*
X239613962Y-80469380D01*
X239619223Y-80472533D01*
X239624150Y-80476187D01*
X239628694Y-80480306D01*
X239632813Y-80484850D01*
X239636467Y-80489777D01*
X239639620Y-80495038D01*
X239642242Y-80500582D01*
X239644309Y-80506357D01*
X239645799Y-80512307D01*
X239646699Y-80518374D01*
X239647000Y-80524500D01*
X239647000Y-81199500D01*
X239646699Y-81205626D01*
X239645799Y-81211693D01*
X239644309Y-81217643D01*
X239642242Y-81223418D01*
X239639620Y-81228962D01*
X239636467Y-81234223D01*
X239632813Y-81239150D01*
X239628694Y-81243694D01*
X239624150Y-81247813D01*
X239619223Y-81251467D01*
X239613962Y-81254620D01*
X239608418Y-81257242D01*
X239602643Y-81259309D01*
X239596693Y-81260799D01*
X239590626Y-81261699D01*
X239584500Y-81262000D01*
X239459500Y-81262000D01*
X239453374Y-81261699D01*
X239447307Y-81260799D01*
X239441357Y-81259309D01*
X239435582Y-81257242D01*
X239430038Y-81254620D01*
X239424777Y-81251467D01*
X239419850Y-81247813D01*
X239415306Y-81243694D01*
X239411187Y-81239150D01*
X239407533Y-81234223D01*
X239404380Y-81228962D01*
X239401758Y-81223418D01*
X239399691Y-81217643D01*
X239398201Y-81211693D01*
X239397301Y-81205626D01*
X239397000Y-81199500D01*
X239397000Y-80524500D01*
X239397301Y-80518374D01*
X239398201Y-80512307D01*
X239399691Y-80506357D01*
X239401758Y-80500582D01*
X239404380Y-80495038D01*
X239407533Y-80489777D01*
X239411187Y-80484850D01*
X239415306Y-80480306D01*
X239419850Y-80476187D01*
X239424777Y-80472533D01*
X239430038Y-80469380D01*
X239435582Y-80466758D01*
X239441357Y-80464691D01*
X239447307Y-80463201D01*
X239453374Y-80462301D01*
X239459500Y-80462000D01*
X239584500Y-80462000D01*
X239590626Y-80462301D01*
G37*
G36*
X240090626Y-80462301D02*
G01*
X240096693Y-80463201D01*
X240102643Y-80464691D01*
X240108418Y-80466758D01*
X240113962Y-80469380D01*
X240119223Y-80472533D01*
X240124150Y-80476187D01*
X240128694Y-80480306D01*
X240132813Y-80484850D01*
X240136467Y-80489777D01*
X240139620Y-80495038D01*
X240142242Y-80500582D01*
X240144309Y-80506357D01*
X240145799Y-80512307D01*
X240146699Y-80518374D01*
X240147000Y-80524500D01*
X240147000Y-81199500D01*
X240146699Y-81205626D01*
X240145799Y-81211693D01*
X240144309Y-81217643D01*
X240142242Y-81223418D01*
X240139620Y-81228962D01*
X240136467Y-81234223D01*
X240132813Y-81239150D01*
X240128694Y-81243694D01*
X240124150Y-81247813D01*
X240119223Y-81251467D01*
X240113962Y-81254620D01*
X240108418Y-81257242D01*
X240102643Y-81259309D01*
X240096693Y-81260799D01*
X240090626Y-81261699D01*
X240084500Y-81262000D01*
X239959500Y-81262000D01*
X239953374Y-81261699D01*
X239947307Y-81260799D01*
X239941357Y-81259309D01*
X239935582Y-81257242D01*
X239930038Y-81254620D01*
X239924777Y-81251467D01*
X239919850Y-81247813D01*
X239915306Y-81243694D01*
X239911187Y-81239150D01*
X239907533Y-81234223D01*
X239904380Y-81228962D01*
X239901758Y-81223418D01*
X239899691Y-81217643D01*
X239898201Y-81211693D01*
X239897301Y-81205626D01*
X239897000Y-81199500D01*
X239897000Y-80524500D01*
X239897301Y-80518374D01*
X239898201Y-80512307D01*
X239899691Y-80506357D01*
X239901758Y-80500582D01*
X239904380Y-80495038D01*
X239907533Y-80489777D01*
X239911187Y-80484850D01*
X239915306Y-80480306D01*
X239919850Y-80476187D01*
X239924777Y-80472533D01*
X239930038Y-80469380D01*
X239935582Y-80466758D01*
X239941357Y-80464691D01*
X239947307Y-80463201D01*
X239953374Y-80462301D01*
X239959500Y-80462000D01*
X240084500Y-80462000D01*
X240090626Y-80462301D01*
G37*
G36*
X240590626Y-80462301D02*
G01*
X240596693Y-80463201D01*
X240602643Y-80464691D01*
X240608418Y-80466758D01*
X240613962Y-80469380D01*
X240619223Y-80472533D01*
X240624150Y-80476187D01*
X240628694Y-80480306D01*
X240632813Y-80484850D01*
X240636467Y-80489777D01*
X240639620Y-80495038D01*
X240642242Y-80500582D01*
X240644309Y-80506357D01*
X240645799Y-80512307D01*
X240646699Y-80518374D01*
X240647000Y-80524500D01*
X240647000Y-81199500D01*
X240646699Y-81205626D01*
X240645799Y-81211693D01*
X240644309Y-81217643D01*
X240642242Y-81223418D01*
X240639620Y-81228962D01*
X240636467Y-81234223D01*
X240632813Y-81239150D01*
X240628694Y-81243694D01*
X240624150Y-81247813D01*
X240619223Y-81251467D01*
X240613962Y-81254620D01*
X240608418Y-81257242D01*
X240602643Y-81259309D01*
X240596693Y-81260799D01*
X240590626Y-81261699D01*
X240584500Y-81262000D01*
X240459500Y-81262000D01*
X240453374Y-81261699D01*
X240447307Y-81260799D01*
X240441357Y-81259309D01*
X240435582Y-81257242D01*
X240430038Y-81254620D01*
X240424777Y-81251467D01*
X240419850Y-81247813D01*
X240415306Y-81243694D01*
X240411187Y-81239150D01*
X240407533Y-81234223D01*
X240404380Y-81228962D01*
X240401758Y-81223418D01*
X240399691Y-81217643D01*
X240398201Y-81211693D01*
X240397301Y-81205626D01*
X240397000Y-81199500D01*
X240397000Y-80524500D01*
X240397301Y-80518374D01*
X240398201Y-80512307D01*
X240399691Y-80506357D01*
X240401758Y-80500582D01*
X240404380Y-80495038D01*
X240407533Y-80489777D01*
X240411187Y-80484850D01*
X240415306Y-80480306D01*
X240419850Y-80476187D01*
X240424777Y-80472533D01*
X240430038Y-80469380D01*
X240435582Y-80466758D01*
X240441357Y-80464691D01*
X240447307Y-80463201D01*
X240453374Y-80462301D01*
X240459500Y-80462000D01*
X240584500Y-80462000D01*
X240590626Y-80462301D01*
G37*
G36*
X241090626Y-80462301D02*
G01*
X241096693Y-80463201D01*
X241102643Y-80464691D01*
X241108418Y-80466758D01*
X241113962Y-80469380D01*
X241119223Y-80472533D01*
X241124150Y-80476187D01*
X241128694Y-80480306D01*
X241132813Y-80484850D01*
X241136467Y-80489777D01*
X241139620Y-80495038D01*
X241142242Y-80500582D01*
X241144309Y-80506357D01*
X241145799Y-80512307D01*
X241146699Y-80518374D01*
X241147000Y-80524500D01*
X241147000Y-81199500D01*
X241146699Y-81205626D01*
X241145799Y-81211693D01*
X241144309Y-81217643D01*
X241142242Y-81223418D01*
X241139620Y-81228962D01*
X241136467Y-81234223D01*
X241132813Y-81239150D01*
X241128694Y-81243694D01*
X241124150Y-81247813D01*
X241119223Y-81251467D01*
X241113962Y-81254620D01*
X241108418Y-81257242D01*
X241102643Y-81259309D01*
X241096693Y-81260799D01*
X241090626Y-81261699D01*
X241084500Y-81262000D01*
X240959500Y-81262000D01*
X240953374Y-81261699D01*
X240947307Y-81260799D01*
X240941357Y-81259309D01*
X240935582Y-81257242D01*
X240930038Y-81254620D01*
X240924777Y-81251467D01*
X240919850Y-81247813D01*
X240915306Y-81243694D01*
X240911187Y-81239150D01*
X240907533Y-81234223D01*
X240904380Y-81228962D01*
X240901758Y-81223418D01*
X240899691Y-81217643D01*
X240898201Y-81211693D01*
X240897301Y-81205626D01*
X240897000Y-81199500D01*
X240897000Y-80524500D01*
X240897301Y-80518374D01*
X240898201Y-80512307D01*
X240899691Y-80506357D01*
X240901758Y-80500582D01*
X240904380Y-80495038D01*
X240907533Y-80489777D01*
X240911187Y-80484850D01*
X240915306Y-80480306D01*
X240919850Y-80476187D01*
X240924777Y-80472533D01*
X240930038Y-80469380D01*
X240935582Y-80466758D01*
X240941357Y-80464691D01*
X240947307Y-80463201D01*
X240953374Y-80462301D01*
X240959500Y-80462000D01*
X241084500Y-80462000D01*
X241090626Y-80462301D01*
G37*
G36*
X242315626Y-81687301D02*
G01*
X242321693Y-81688201D01*
X242327643Y-81689691D01*
X242333418Y-81691758D01*
X242338962Y-81694380D01*
X242344223Y-81697533D01*
X242349150Y-81701187D01*
X242353694Y-81705306D01*
X242357813Y-81709850D01*
X242361467Y-81714777D01*
X242364620Y-81720038D01*
X242367242Y-81725582D01*
X242369309Y-81731357D01*
X242370799Y-81737307D01*
X242371699Y-81743374D01*
X242372000Y-81749500D01*
X242372000Y-81874500D01*
X242371699Y-81880626D01*
X242370799Y-81886693D01*
X242369309Y-81892643D01*
X242367242Y-81898418D01*
X242364620Y-81903962D01*
X242361467Y-81909223D01*
X242357813Y-81914150D01*
X242353694Y-81918694D01*
X242349150Y-81922813D01*
X242344223Y-81926467D01*
X242338962Y-81929620D01*
X242333418Y-81932242D01*
X242327643Y-81934309D01*
X242321693Y-81935799D01*
X242315626Y-81936699D01*
X242309500Y-81937000D01*
X241634500Y-81937000D01*
X241628374Y-81936699D01*
X241622307Y-81935799D01*
X241616357Y-81934309D01*
X241610582Y-81932242D01*
X241605038Y-81929620D01*
X241599777Y-81926467D01*
X241594850Y-81922813D01*
X241590306Y-81918694D01*
X241586187Y-81914150D01*
X241582533Y-81909223D01*
X241579380Y-81903962D01*
X241576758Y-81898418D01*
X241574691Y-81892643D01*
X241573201Y-81886693D01*
X241572301Y-81880626D01*
X241572000Y-81874500D01*
X241572000Y-81749500D01*
X241572301Y-81743374D01*
X241573201Y-81737307D01*
X241574691Y-81731357D01*
X241576758Y-81725582D01*
X241579380Y-81720038D01*
X241582533Y-81714777D01*
X241586187Y-81709850D01*
X241590306Y-81705306D01*
X241594850Y-81701187D01*
X241599777Y-81697533D01*
X241605038Y-81694380D01*
X241610582Y-81691758D01*
X241616357Y-81689691D01*
X241622307Y-81688201D01*
X241628374Y-81687301D01*
X241634500Y-81687000D01*
X242309500Y-81687000D01*
X242315626Y-81687301D01*
G37*
G36*
X242315626Y-82187301D02*
G01*
X242321693Y-82188201D01*
X242327643Y-82189691D01*
X242333418Y-82191758D01*
X242338962Y-82194380D01*
X242344223Y-82197533D01*
X242349150Y-82201187D01*
X242353694Y-82205306D01*
X242357813Y-82209850D01*
X242361467Y-82214777D01*
X242364620Y-82220038D01*
X242367242Y-82225582D01*
X242369309Y-82231357D01*
X242370799Y-82237307D01*
X242371699Y-82243374D01*
X242372000Y-82249500D01*
X242372000Y-82374500D01*
X242371699Y-82380626D01*
X242370799Y-82386693D01*
X242369309Y-82392643D01*
X242367242Y-82398418D01*
X242364620Y-82403962D01*
X242361467Y-82409223D01*
X242357813Y-82414150D01*
X242353694Y-82418694D01*
X242349150Y-82422813D01*
X242344223Y-82426467D01*
X242338962Y-82429620D01*
X242333418Y-82432242D01*
X242327643Y-82434309D01*
X242321693Y-82435799D01*
X242315626Y-82436699D01*
X242309500Y-82437000D01*
X241634500Y-82437000D01*
X241628374Y-82436699D01*
X241622307Y-82435799D01*
X241616357Y-82434309D01*
X241610582Y-82432242D01*
X241605038Y-82429620D01*
X241599777Y-82426467D01*
X241594850Y-82422813D01*
X241590306Y-82418694D01*
X241586187Y-82414150D01*
X241582533Y-82409223D01*
X241579380Y-82403962D01*
X241576758Y-82398418D01*
X241574691Y-82392643D01*
X241573201Y-82386693D01*
X241572301Y-82380626D01*
X241572000Y-82374500D01*
X241572000Y-82249500D01*
X241572301Y-82243374D01*
X241573201Y-82237307D01*
X241574691Y-82231357D01*
X241576758Y-82225582D01*
X241579380Y-82220038D01*
X241582533Y-82214777D01*
X241586187Y-82209850D01*
X241590306Y-82205306D01*
X241594850Y-82201187D01*
X241599777Y-82197533D01*
X241605038Y-82194380D01*
X241610582Y-82191758D01*
X241616357Y-82189691D01*
X241622307Y-82188201D01*
X241628374Y-82187301D01*
X241634500Y-82187000D01*
X242309500Y-82187000D01*
X242315626Y-82187301D01*
G37*
G36*
X242315626Y-82687301D02*
G01*
X242321693Y-82688201D01*
X242327643Y-82689691D01*
X242333418Y-82691758D01*
X242338962Y-82694380D01*
X242344223Y-82697533D01*
X242349150Y-82701187D01*
X242353694Y-82705306D01*
X242357813Y-82709850D01*
X242361467Y-82714777D01*
X242364620Y-82720038D01*
X242367242Y-82725582D01*
X242369309Y-82731357D01*
X242370799Y-82737307D01*
X242371699Y-82743374D01*
X242372000Y-82749500D01*
X242372000Y-82874500D01*
X242371699Y-82880626D01*
X242370799Y-82886693D01*
X242369309Y-82892643D01*
X242367242Y-82898418D01*
X242364620Y-82903962D01*
X242361467Y-82909223D01*
X242357813Y-82914150D01*
X242353694Y-82918694D01*
X242349150Y-82922813D01*
X242344223Y-82926467D01*
X242338962Y-82929620D01*
X242333418Y-82932242D01*
X242327643Y-82934309D01*
X242321693Y-82935799D01*
X242315626Y-82936699D01*
X242309500Y-82937000D01*
X241634500Y-82937000D01*
X241628374Y-82936699D01*
X241622307Y-82935799D01*
X241616357Y-82934309D01*
X241610582Y-82932242D01*
X241605038Y-82929620D01*
X241599777Y-82926467D01*
X241594850Y-82922813D01*
X241590306Y-82918694D01*
X241586187Y-82914150D01*
X241582533Y-82909223D01*
X241579380Y-82903962D01*
X241576758Y-82898418D01*
X241574691Y-82892643D01*
X241573201Y-82886693D01*
X241572301Y-82880626D01*
X241572000Y-82874500D01*
X241572000Y-82749500D01*
X241572301Y-82743374D01*
X241573201Y-82737307D01*
X241574691Y-82731357D01*
X241576758Y-82725582D01*
X241579380Y-82720038D01*
X241582533Y-82714777D01*
X241586187Y-82709850D01*
X241590306Y-82705306D01*
X241594850Y-82701187D01*
X241599777Y-82697533D01*
X241605038Y-82694380D01*
X241610582Y-82691758D01*
X241616357Y-82689691D01*
X241622307Y-82688201D01*
X241628374Y-82687301D01*
X241634500Y-82687000D01*
X242309500Y-82687000D01*
X242315626Y-82687301D01*
G37*
G36*
X242315626Y-83187301D02*
G01*
X242321693Y-83188201D01*
X242327643Y-83189691D01*
X242333418Y-83191758D01*
X242338962Y-83194380D01*
X242344223Y-83197533D01*
X242349150Y-83201187D01*
X242353694Y-83205306D01*
X242357813Y-83209850D01*
X242361467Y-83214777D01*
X242364620Y-83220038D01*
X242367242Y-83225582D01*
X242369309Y-83231357D01*
X242370799Y-83237307D01*
X242371699Y-83243374D01*
X242372000Y-83249500D01*
X242372000Y-83374500D01*
X242371699Y-83380626D01*
X242370799Y-83386693D01*
X242369309Y-83392643D01*
X242367242Y-83398418D01*
X242364620Y-83403962D01*
X242361467Y-83409223D01*
X242357813Y-83414150D01*
X242353694Y-83418694D01*
X242349150Y-83422813D01*
X242344223Y-83426467D01*
X242338962Y-83429620D01*
X242333418Y-83432242D01*
X242327643Y-83434309D01*
X242321693Y-83435799D01*
X242315626Y-83436699D01*
X242309500Y-83437000D01*
X241634500Y-83437000D01*
X241628374Y-83436699D01*
X241622307Y-83435799D01*
X241616357Y-83434309D01*
X241610582Y-83432242D01*
X241605038Y-83429620D01*
X241599777Y-83426467D01*
X241594850Y-83422813D01*
X241590306Y-83418694D01*
X241586187Y-83414150D01*
X241582533Y-83409223D01*
X241579380Y-83403962D01*
X241576758Y-83398418D01*
X241574691Y-83392643D01*
X241573201Y-83386693D01*
X241572301Y-83380626D01*
X241572000Y-83374500D01*
X241572000Y-83249500D01*
X241572301Y-83243374D01*
X241573201Y-83237307D01*
X241574691Y-83231357D01*
X241576758Y-83225582D01*
X241579380Y-83220038D01*
X241582533Y-83214777D01*
X241586187Y-83209850D01*
X241590306Y-83205306D01*
X241594850Y-83201187D01*
X241599777Y-83197533D01*
X241605038Y-83194380D01*
X241610582Y-83191758D01*
X241616357Y-83189691D01*
X241622307Y-83188201D01*
X241628374Y-83187301D01*
X241634500Y-83187000D01*
X242309500Y-83187000D01*
X242315626Y-83187301D01*
G37*
G36*
X242315626Y-83687301D02*
G01*
X242321693Y-83688201D01*
X242327643Y-83689691D01*
X242333418Y-83691758D01*
X242338962Y-83694380D01*
X242344223Y-83697533D01*
X242349150Y-83701187D01*
X242353694Y-83705306D01*
X242357813Y-83709850D01*
X242361467Y-83714777D01*
X242364620Y-83720038D01*
X242367242Y-83725582D01*
X242369309Y-83731357D01*
X242370799Y-83737307D01*
X242371699Y-83743374D01*
X242372000Y-83749500D01*
X242372000Y-83874500D01*
X242371699Y-83880626D01*
X242370799Y-83886693D01*
X242369309Y-83892643D01*
X242367242Y-83898418D01*
X242364620Y-83903962D01*
X242361467Y-83909223D01*
X242357813Y-83914150D01*
X242353694Y-83918694D01*
X242349150Y-83922813D01*
X242344223Y-83926467D01*
X242338962Y-83929620D01*
X242333418Y-83932242D01*
X242327643Y-83934309D01*
X242321693Y-83935799D01*
X242315626Y-83936699D01*
X242309500Y-83937000D01*
X241634500Y-83937000D01*
X241628374Y-83936699D01*
X241622307Y-83935799D01*
X241616357Y-83934309D01*
X241610582Y-83932242D01*
X241605038Y-83929620D01*
X241599777Y-83926467D01*
X241594850Y-83922813D01*
X241590306Y-83918694D01*
X241586187Y-83914150D01*
X241582533Y-83909223D01*
X241579380Y-83903962D01*
X241576758Y-83898418D01*
X241574691Y-83892643D01*
X241573201Y-83886693D01*
X241572301Y-83880626D01*
X241572000Y-83874500D01*
X241572000Y-83749500D01*
X241572301Y-83743374D01*
X241573201Y-83737307D01*
X241574691Y-83731357D01*
X241576758Y-83725582D01*
X241579380Y-83720038D01*
X241582533Y-83714777D01*
X241586187Y-83709850D01*
X241590306Y-83705306D01*
X241594850Y-83701187D01*
X241599777Y-83697533D01*
X241605038Y-83694380D01*
X241610582Y-83691758D01*
X241616357Y-83689691D01*
X241622307Y-83688201D01*
X241628374Y-83687301D01*
X241634500Y-83687000D01*
X242309500Y-83687000D01*
X242315626Y-83687301D01*
G37*
G36*
X242315626Y-84187301D02*
G01*
X242321693Y-84188201D01*
X242327643Y-84189691D01*
X242333418Y-84191758D01*
X242338962Y-84194380D01*
X242344223Y-84197533D01*
X242349150Y-84201187D01*
X242353694Y-84205306D01*
X242357813Y-84209850D01*
X242361467Y-84214777D01*
X242364620Y-84220038D01*
X242367242Y-84225582D01*
X242369309Y-84231357D01*
X242370799Y-84237307D01*
X242371699Y-84243374D01*
X242372000Y-84249500D01*
X242372000Y-84374500D01*
X242371699Y-84380626D01*
X242370799Y-84386693D01*
X242369309Y-84392643D01*
X242367242Y-84398418D01*
X242364620Y-84403962D01*
X242361467Y-84409223D01*
X242357813Y-84414150D01*
X242353694Y-84418694D01*
X242349150Y-84422813D01*
X242344223Y-84426467D01*
X242338962Y-84429620D01*
X242333418Y-84432242D01*
X242327643Y-84434309D01*
X242321693Y-84435799D01*
X242315626Y-84436699D01*
X242309500Y-84437000D01*
X241634500Y-84437000D01*
X241628374Y-84436699D01*
X241622307Y-84435799D01*
X241616357Y-84434309D01*
X241610582Y-84432242D01*
X241605038Y-84429620D01*
X241599777Y-84426467D01*
X241594850Y-84422813D01*
X241590306Y-84418694D01*
X241586187Y-84414150D01*
X241582533Y-84409223D01*
X241579380Y-84403962D01*
X241576758Y-84398418D01*
X241574691Y-84392643D01*
X241573201Y-84386693D01*
X241572301Y-84380626D01*
X241572000Y-84374500D01*
X241572000Y-84249500D01*
X241572301Y-84243374D01*
X241573201Y-84237307D01*
X241574691Y-84231357D01*
X241576758Y-84225582D01*
X241579380Y-84220038D01*
X241582533Y-84214777D01*
X241586187Y-84209850D01*
X241590306Y-84205306D01*
X241594850Y-84201187D01*
X241599777Y-84197533D01*
X241605038Y-84194380D01*
X241610582Y-84191758D01*
X241616357Y-84189691D01*
X241622307Y-84188201D01*
X241628374Y-84187301D01*
X241634500Y-84187000D01*
X242309500Y-84187000D01*
X242315626Y-84187301D01*
G37*
G36*
X242315626Y-84687301D02*
G01*
X242321693Y-84688201D01*
X242327643Y-84689691D01*
X242333418Y-84691758D01*
X242338962Y-84694380D01*
X242344223Y-84697533D01*
X242349150Y-84701187D01*
X242353694Y-84705306D01*
X242357813Y-84709850D01*
X242361467Y-84714777D01*
X242364620Y-84720038D01*
X242367242Y-84725582D01*
X242369309Y-84731357D01*
X242370799Y-84737307D01*
X242371699Y-84743374D01*
X242372000Y-84749500D01*
X242372000Y-84874500D01*
X242371699Y-84880626D01*
X242370799Y-84886693D01*
X242369309Y-84892643D01*
X242367242Y-84898418D01*
X242364620Y-84903962D01*
X242361467Y-84909223D01*
X242357813Y-84914150D01*
X242353694Y-84918694D01*
X242349150Y-84922813D01*
X242344223Y-84926467D01*
X242338962Y-84929620D01*
X242333418Y-84932242D01*
X242327643Y-84934309D01*
X242321693Y-84935799D01*
X242315626Y-84936699D01*
X242309500Y-84937000D01*
X241634500Y-84937000D01*
X241628374Y-84936699D01*
X241622307Y-84935799D01*
X241616357Y-84934309D01*
X241610582Y-84932242D01*
X241605038Y-84929620D01*
X241599777Y-84926467D01*
X241594850Y-84922813D01*
X241590306Y-84918694D01*
X241586187Y-84914150D01*
X241582533Y-84909223D01*
X241579380Y-84903962D01*
X241576758Y-84898418D01*
X241574691Y-84892643D01*
X241573201Y-84886693D01*
X241572301Y-84880626D01*
X241572000Y-84874500D01*
X241572000Y-84749500D01*
X241572301Y-84743374D01*
X241573201Y-84737307D01*
X241574691Y-84731357D01*
X241576758Y-84725582D01*
X241579380Y-84720038D01*
X241582533Y-84714777D01*
X241586187Y-84709850D01*
X241590306Y-84705306D01*
X241594850Y-84701187D01*
X241599777Y-84697533D01*
X241605038Y-84694380D01*
X241610582Y-84691758D01*
X241616357Y-84689691D01*
X241622307Y-84688201D01*
X241628374Y-84687301D01*
X241634500Y-84687000D01*
X242309500Y-84687000D01*
X242315626Y-84687301D01*
G37*
G36*
X241090626Y-85362301D02*
G01*
X241096693Y-85363201D01*
X241102643Y-85364691D01*
X241108418Y-85366758D01*
X241113962Y-85369380D01*
X241119223Y-85372533D01*
X241124150Y-85376187D01*
X241128694Y-85380306D01*
X241132813Y-85384850D01*
X241136467Y-85389777D01*
X241139620Y-85395038D01*
X241142242Y-85400582D01*
X241144309Y-85406357D01*
X241145799Y-85412307D01*
X241146699Y-85418374D01*
X241147000Y-85424500D01*
X241147000Y-86099500D01*
X241146699Y-86105626D01*
X241145799Y-86111693D01*
X241144309Y-86117643D01*
X241142242Y-86123418D01*
X241139620Y-86128962D01*
X241136467Y-86134223D01*
X241132813Y-86139150D01*
X241128694Y-86143694D01*
X241124150Y-86147813D01*
X241119223Y-86151467D01*
X241113962Y-86154620D01*
X241108418Y-86157242D01*
X241102643Y-86159309D01*
X241096693Y-86160799D01*
X241090626Y-86161699D01*
X241084500Y-86162000D01*
X240959500Y-86162000D01*
X240953374Y-86161699D01*
X240947307Y-86160799D01*
X240941357Y-86159309D01*
X240935582Y-86157242D01*
X240930038Y-86154620D01*
X240924777Y-86151467D01*
X240919850Y-86147813D01*
X240915306Y-86143694D01*
X240911187Y-86139150D01*
X240907533Y-86134223D01*
X240904380Y-86128962D01*
X240901758Y-86123418D01*
X240899691Y-86117643D01*
X240898201Y-86111693D01*
X240897301Y-86105626D01*
X240897000Y-86099500D01*
X240897000Y-85424500D01*
X240897301Y-85418374D01*
X240898201Y-85412307D01*
X240899691Y-85406357D01*
X240901758Y-85400582D01*
X240904380Y-85395038D01*
X240907533Y-85389777D01*
X240911187Y-85384850D01*
X240915306Y-85380306D01*
X240919850Y-85376187D01*
X240924777Y-85372533D01*
X240930038Y-85369380D01*
X240935582Y-85366758D01*
X240941357Y-85364691D01*
X240947307Y-85363201D01*
X240953374Y-85362301D01*
X240959500Y-85362000D01*
X241084500Y-85362000D01*
X241090626Y-85362301D01*
G37*
G36*
X240590626Y-85362301D02*
G01*
X240596693Y-85363201D01*
X240602643Y-85364691D01*
X240608418Y-85366758D01*
X240613962Y-85369380D01*
X240619223Y-85372533D01*
X240624150Y-85376187D01*
X240628694Y-85380306D01*
X240632813Y-85384850D01*
X240636467Y-85389777D01*
X240639620Y-85395038D01*
X240642242Y-85400582D01*
X240644309Y-85406357D01*
X240645799Y-85412307D01*
X240646699Y-85418374D01*
X240647000Y-85424500D01*
X240647000Y-86099500D01*
X240646699Y-86105626D01*
X240645799Y-86111693D01*
X240644309Y-86117643D01*
X240642242Y-86123418D01*
X240639620Y-86128962D01*
X240636467Y-86134223D01*
X240632813Y-86139150D01*
X240628694Y-86143694D01*
X240624150Y-86147813D01*
X240619223Y-86151467D01*
X240613962Y-86154620D01*
X240608418Y-86157242D01*
X240602643Y-86159309D01*
X240596693Y-86160799D01*
X240590626Y-86161699D01*
X240584500Y-86162000D01*
X240459500Y-86162000D01*
X240453374Y-86161699D01*
X240447307Y-86160799D01*
X240441357Y-86159309D01*
X240435582Y-86157242D01*
X240430038Y-86154620D01*
X240424777Y-86151467D01*
X240419850Y-86147813D01*
X240415306Y-86143694D01*
X240411187Y-86139150D01*
X240407533Y-86134223D01*
X240404380Y-86128962D01*
X240401758Y-86123418D01*
X240399691Y-86117643D01*
X240398201Y-86111693D01*
X240397301Y-86105626D01*
X240397000Y-86099500D01*
X240397000Y-85424500D01*
X240397301Y-85418374D01*
X240398201Y-85412307D01*
X240399691Y-85406357D01*
X240401758Y-85400582D01*
X240404380Y-85395038D01*
X240407533Y-85389777D01*
X240411187Y-85384850D01*
X240415306Y-85380306D01*
X240419850Y-85376187D01*
X240424777Y-85372533D01*
X240430038Y-85369380D01*
X240435582Y-85366758D01*
X240441357Y-85364691D01*
X240447307Y-85363201D01*
X240453374Y-85362301D01*
X240459500Y-85362000D01*
X240584500Y-85362000D01*
X240590626Y-85362301D01*
G37*
G36*
X240090626Y-85362301D02*
G01*
X240096693Y-85363201D01*
X240102643Y-85364691D01*
X240108418Y-85366758D01*
X240113962Y-85369380D01*
X240119223Y-85372533D01*
X240124150Y-85376187D01*
X240128694Y-85380306D01*
X240132813Y-85384850D01*
X240136467Y-85389777D01*
X240139620Y-85395038D01*
X240142242Y-85400582D01*
X240144309Y-85406357D01*
X240145799Y-85412307D01*
X240146699Y-85418374D01*
X240147000Y-85424500D01*
X240147000Y-86099500D01*
X240146699Y-86105626D01*
X240145799Y-86111693D01*
X240144309Y-86117643D01*
X240142242Y-86123418D01*
X240139620Y-86128962D01*
X240136467Y-86134223D01*
X240132813Y-86139150D01*
X240128694Y-86143694D01*
X240124150Y-86147813D01*
X240119223Y-86151467D01*
X240113962Y-86154620D01*
X240108418Y-86157242D01*
X240102643Y-86159309D01*
X240096693Y-86160799D01*
X240090626Y-86161699D01*
X240084500Y-86162000D01*
X239959500Y-86162000D01*
X239953374Y-86161699D01*
X239947307Y-86160799D01*
X239941357Y-86159309D01*
X239935582Y-86157242D01*
X239930038Y-86154620D01*
X239924777Y-86151467D01*
X239919850Y-86147813D01*
X239915306Y-86143694D01*
X239911187Y-86139150D01*
X239907533Y-86134223D01*
X239904380Y-86128962D01*
X239901758Y-86123418D01*
X239899691Y-86117643D01*
X239898201Y-86111693D01*
X239897301Y-86105626D01*
X239897000Y-86099500D01*
X239897000Y-85424500D01*
X239897301Y-85418374D01*
X239898201Y-85412307D01*
X239899691Y-85406357D01*
X239901758Y-85400582D01*
X239904380Y-85395038D01*
X239907533Y-85389777D01*
X239911187Y-85384850D01*
X239915306Y-85380306D01*
X239919850Y-85376187D01*
X239924777Y-85372533D01*
X239930038Y-85369380D01*
X239935582Y-85366758D01*
X239941357Y-85364691D01*
X239947307Y-85363201D01*
X239953374Y-85362301D01*
X239959500Y-85362000D01*
X240084500Y-85362000D01*
X240090626Y-85362301D01*
G37*
G36*
X239590626Y-85362301D02*
G01*
X239596693Y-85363201D01*
X239602643Y-85364691D01*
X239608418Y-85366758D01*
X239613962Y-85369380D01*
X239619223Y-85372533D01*
X239624150Y-85376187D01*
X239628694Y-85380306D01*
X239632813Y-85384850D01*
X239636467Y-85389777D01*
X239639620Y-85395038D01*
X239642242Y-85400582D01*
X239644309Y-85406357D01*
X239645799Y-85412307D01*
X239646699Y-85418374D01*
X239647000Y-85424500D01*
X239647000Y-86099500D01*
X239646699Y-86105626D01*
X239645799Y-86111693D01*
X239644309Y-86117643D01*
X239642242Y-86123418D01*
X239639620Y-86128962D01*
X239636467Y-86134223D01*
X239632813Y-86139150D01*
X239628694Y-86143694D01*
X239624150Y-86147813D01*
X239619223Y-86151467D01*
X239613962Y-86154620D01*
X239608418Y-86157242D01*
X239602643Y-86159309D01*
X239596693Y-86160799D01*
X239590626Y-86161699D01*
X239584500Y-86162000D01*
X239459500Y-86162000D01*
X239453374Y-86161699D01*
X239447307Y-86160799D01*
X239441357Y-86159309D01*
X239435582Y-86157242D01*
X239430038Y-86154620D01*
X239424777Y-86151467D01*
X239419850Y-86147813D01*
X239415306Y-86143694D01*
X239411187Y-86139150D01*
X239407533Y-86134223D01*
X239404380Y-86128962D01*
X239401758Y-86123418D01*
X239399691Y-86117643D01*
X239398201Y-86111693D01*
X239397301Y-86105626D01*
X239397000Y-86099500D01*
X239397000Y-85424500D01*
X239397301Y-85418374D01*
X239398201Y-85412307D01*
X239399691Y-85406357D01*
X239401758Y-85400582D01*
X239404380Y-85395038D01*
X239407533Y-85389777D01*
X239411187Y-85384850D01*
X239415306Y-85380306D01*
X239419850Y-85376187D01*
X239424777Y-85372533D01*
X239430038Y-85369380D01*
X239435582Y-85366758D01*
X239441357Y-85364691D01*
X239447307Y-85363201D01*
X239453374Y-85362301D01*
X239459500Y-85362000D01*
X239584500Y-85362000D01*
X239590626Y-85362301D01*
G37*
G36*
X239090626Y-85362301D02*
G01*
X239096693Y-85363201D01*
X239102643Y-85364691D01*
X239108418Y-85366758D01*
X239113962Y-85369380D01*
X239119223Y-85372533D01*
X239124150Y-85376187D01*
X239128694Y-85380306D01*
X239132813Y-85384850D01*
X239136467Y-85389777D01*
X239139620Y-85395038D01*
X239142242Y-85400582D01*
X239144309Y-85406357D01*
X239145799Y-85412307D01*
X239146699Y-85418374D01*
X239147000Y-85424500D01*
X239147000Y-86099500D01*
X239146699Y-86105626D01*
X239145799Y-86111693D01*
X239144309Y-86117643D01*
X239142242Y-86123418D01*
X239139620Y-86128962D01*
X239136467Y-86134223D01*
X239132813Y-86139150D01*
X239128694Y-86143694D01*
X239124150Y-86147813D01*
X239119223Y-86151467D01*
X239113962Y-86154620D01*
X239108418Y-86157242D01*
X239102643Y-86159309D01*
X239096693Y-86160799D01*
X239090626Y-86161699D01*
X239084500Y-86162000D01*
X238959500Y-86162000D01*
X238953374Y-86161699D01*
X238947307Y-86160799D01*
X238941357Y-86159309D01*
X238935582Y-86157242D01*
X238930038Y-86154620D01*
X238924777Y-86151467D01*
X238919850Y-86147813D01*
X238915306Y-86143694D01*
X238911187Y-86139150D01*
X238907533Y-86134223D01*
X238904380Y-86128962D01*
X238901758Y-86123418D01*
X238899691Y-86117643D01*
X238898201Y-86111693D01*
X238897301Y-86105626D01*
X238897000Y-86099500D01*
X238897000Y-85424500D01*
X238897301Y-85418374D01*
X238898201Y-85412307D01*
X238899691Y-85406357D01*
X238901758Y-85400582D01*
X238904380Y-85395038D01*
X238907533Y-85389777D01*
X238911187Y-85384850D01*
X238915306Y-85380306D01*
X238919850Y-85376187D01*
X238924777Y-85372533D01*
X238930038Y-85369380D01*
X238935582Y-85366758D01*
X238941357Y-85364691D01*
X238947307Y-85363201D01*
X238953374Y-85362301D01*
X238959500Y-85362000D01*
X239084500Y-85362000D01*
X239090626Y-85362301D01*
G37*
G36*
X238590626Y-85362301D02*
G01*
X238596693Y-85363201D01*
X238602643Y-85364691D01*
X238608418Y-85366758D01*
X238613962Y-85369380D01*
X238619223Y-85372533D01*
X238624150Y-85376187D01*
X238628694Y-85380306D01*
X238632813Y-85384850D01*
X238636467Y-85389777D01*
X238639620Y-85395038D01*
X238642242Y-85400582D01*
X238644309Y-85406357D01*
X238645799Y-85412307D01*
X238646699Y-85418374D01*
X238647000Y-85424500D01*
X238647000Y-86099500D01*
X238646699Y-86105626D01*
X238645799Y-86111693D01*
X238644309Y-86117643D01*
X238642242Y-86123418D01*
X238639620Y-86128962D01*
X238636467Y-86134223D01*
X238632813Y-86139150D01*
X238628694Y-86143694D01*
X238624150Y-86147813D01*
X238619223Y-86151467D01*
X238613962Y-86154620D01*
X238608418Y-86157242D01*
X238602643Y-86159309D01*
X238596693Y-86160799D01*
X238590626Y-86161699D01*
X238584500Y-86162000D01*
X238459500Y-86162000D01*
X238453374Y-86161699D01*
X238447307Y-86160799D01*
X238441357Y-86159309D01*
X238435582Y-86157242D01*
X238430038Y-86154620D01*
X238424777Y-86151467D01*
X238419850Y-86147813D01*
X238415306Y-86143694D01*
X238411187Y-86139150D01*
X238407533Y-86134223D01*
X238404380Y-86128962D01*
X238401758Y-86123418D01*
X238399691Y-86117643D01*
X238398201Y-86111693D01*
X238397301Y-86105626D01*
X238397000Y-86099500D01*
X238397000Y-85424500D01*
X238397301Y-85418374D01*
X238398201Y-85412307D01*
X238399691Y-85406357D01*
X238401758Y-85400582D01*
X238404380Y-85395038D01*
X238407533Y-85389777D01*
X238411187Y-85384850D01*
X238415306Y-85380306D01*
X238419850Y-85376187D01*
X238424777Y-85372533D01*
X238430038Y-85369380D01*
X238435582Y-85366758D01*
X238441357Y-85364691D01*
X238447307Y-85363201D01*
X238453374Y-85362301D01*
X238459500Y-85362000D01*
X238584500Y-85362000D01*
X238590626Y-85362301D01*
G37*
G36*
X238090626Y-85362301D02*
G01*
X238096693Y-85363201D01*
X238102643Y-85364691D01*
X238108418Y-85366758D01*
X238113962Y-85369380D01*
X238119223Y-85372533D01*
X238124150Y-85376187D01*
X238128694Y-85380306D01*
X238132813Y-85384850D01*
X238136467Y-85389777D01*
X238139620Y-85395038D01*
X238142242Y-85400582D01*
X238144309Y-85406357D01*
X238145799Y-85412307D01*
X238146699Y-85418374D01*
X238147000Y-85424500D01*
X238147000Y-86099500D01*
X238146699Y-86105626D01*
X238145799Y-86111693D01*
X238144309Y-86117643D01*
X238142242Y-86123418D01*
X238139620Y-86128962D01*
X238136467Y-86134223D01*
X238132813Y-86139150D01*
X238128694Y-86143694D01*
X238124150Y-86147813D01*
X238119223Y-86151467D01*
X238113962Y-86154620D01*
X238108418Y-86157242D01*
X238102643Y-86159309D01*
X238096693Y-86160799D01*
X238090626Y-86161699D01*
X238084500Y-86162000D01*
X237959500Y-86162000D01*
X237953374Y-86161699D01*
X237947307Y-86160799D01*
X237941357Y-86159309D01*
X237935582Y-86157242D01*
X237930038Y-86154620D01*
X237924777Y-86151467D01*
X237919850Y-86147813D01*
X237915306Y-86143694D01*
X237911187Y-86139150D01*
X237907533Y-86134223D01*
X237904380Y-86128962D01*
X237901758Y-86123418D01*
X237899691Y-86117643D01*
X237898201Y-86111693D01*
X237897301Y-86105626D01*
X237897000Y-86099500D01*
X237897000Y-85424500D01*
X237897301Y-85418374D01*
X237898201Y-85412307D01*
X237899691Y-85406357D01*
X237901758Y-85400582D01*
X237904380Y-85395038D01*
X237907533Y-85389777D01*
X237911187Y-85384850D01*
X237915306Y-85380306D01*
X237919850Y-85376187D01*
X237924777Y-85372533D01*
X237930038Y-85369380D01*
X237935582Y-85366758D01*
X237941357Y-85364691D01*
X237947307Y-85363201D01*
X237953374Y-85362301D01*
X237959500Y-85362000D01*
X238084500Y-85362000D01*
X238090626Y-85362301D01*
G37*
G36*
X240889054Y-81743083D02*
G01*
X240910895Y-81746323D01*
X240932314Y-81751688D01*
X240953104Y-81759127D01*
X240973064Y-81768568D01*
X240992003Y-81779919D01*
X241009738Y-81793073D01*
X241026099Y-81807901D01*
X241040927Y-81824262D01*
X241054081Y-81841997D01*
X241065432Y-81860936D01*
X241074873Y-81880896D01*
X241082312Y-81901686D01*
X241087677Y-81923105D01*
X241090917Y-81944946D01*
X241092000Y-81967000D01*
X241092000Y-82417000D01*
X241090917Y-82439054D01*
X241087677Y-82460895D01*
X241082312Y-82482314D01*
X241074873Y-82503104D01*
X241065432Y-82523064D01*
X241054081Y-82542003D01*
X241040927Y-82559738D01*
X241026099Y-82576099D01*
X241009738Y-82590927D01*
X240992003Y-82604081D01*
X240973064Y-82615432D01*
X240953104Y-82624873D01*
X240932314Y-82632312D01*
X240910895Y-82637677D01*
X240889054Y-82640917D01*
X240867000Y-82642000D01*
X240417000Y-82642000D01*
X240394946Y-82640917D01*
X240373105Y-82637677D01*
X240351686Y-82632312D01*
X240330896Y-82624873D01*
X240310936Y-82615432D01*
X240291997Y-82604081D01*
X240274262Y-82590927D01*
X240257901Y-82576099D01*
X240243073Y-82559738D01*
X240229919Y-82542003D01*
X240218568Y-82523064D01*
X240209127Y-82503104D01*
X240201688Y-82482314D01*
X240196323Y-82460895D01*
X240193083Y-82439054D01*
X240192000Y-82417000D01*
X240192000Y-81967000D01*
X240193083Y-81944946D01*
X240196323Y-81923105D01*
X240201688Y-81901686D01*
X240209127Y-81880896D01*
X240218568Y-81860936D01*
X240229919Y-81841997D01*
X240243073Y-81824262D01*
X240257901Y-81807901D01*
X240274262Y-81793073D01*
X240291997Y-81779919D01*
X240310936Y-81768568D01*
X240330896Y-81759127D01*
X240351686Y-81751688D01*
X240373105Y-81746323D01*
X240394946Y-81743083D01*
X240417000Y-81742000D01*
X240867000Y-81742000D01*
X240889054Y-81743083D01*
G37*
G36*
X239769054Y-81743083D02*
G01*
X239790895Y-81746323D01*
X239812314Y-81751688D01*
X239833104Y-81759127D01*
X239853064Y-81768568D01*
X239872003Y-81779919D01*
X239889738Y-81793073D01*
X239906099Y-81807901D01*
X239920927Y-81824262D01*
X239934081Y-81841997D01*
X239945432Y-81860936D01*
X239954873Y-81880896D01*
X239962312Y-81901686D01*
X239967677Y-81923105D01*
X239970917Y-81944946D01*
X239972000Y-81967000D01*
X239972000Y-82417000D01*
X239970917Y-82439054D01*
X239967677Y-82460895D01*
X239962312Y-82482314D01*
X239954873Y-82503104D01*
X239945432Y-82523064D01*
X239934081Y-82542003D01*
X239920927Y-82559738D01*
X239906099Y-82576099D01*
X239889738Y-82590927D01*
X239872003Y-82604081D01*
X239853064Y-82615432D01*
X239833104Y-82624873D01*
X239812314Y-82632312D01*
X239790895Y-82637677D01*
X239769054Y-82640917D01*
X239747000Y-82642000D01*
X239297000Y-82642000D01*
X239274946Y-82640917D01*
X239253105Y-82637677D01*
X239231686Y-82632312D01*
X239210896Y-82624873D01*
X239190936Y-82615432D01*
X239171997Y-82604081D01*
X239154262Y-82590927D01*
X239137901Y-82576099D01*
X239123073Y-82559738D01*
X239109919Y-82542003D01*
X239098568Y-82523064D01*
X239089127Y-82503104D01*
X239081688Y-82482314D01*
X239076323Y-82460895D01*
X239073083Y-82439054D01*
X239072000Y-82417000D01*
X239072000Y-81967000D01*
X239073083Y-81944946D01*
X239076323Y-81923105D01*
X239081688Y-81901686D01*
X239089127Y-81880896D01*
X239098568Y-81860936D01*
X239109919Y-81841997D01*
X239123073Y-81824262D01*
X239137901Y-81807901D01*
X239154262Y-81793073D01*
X239171997Y-81779919D01*
X239190936Y-81768568D01*
X239210896Y-81759127D01*
X239231686Y-81751688D01*
X239253105Y-81746323D01*
X239274946Y-81743083D01*
X239297000Y-81742000D01*
X239747000Y-81742000D01*
X239769054Y-81743083D01*
G37*
G36*
X238649054Y-81743083D02*
G01*
X238670895Y-81746323D01*
X238692314Y-81751688D01*
X238713104Y-81759127D01*
X238733064Y-81768568D01*
X238752003Y-81779919D01*
X238769738Y-81793073D01*
X238786099Y-81807901D01*
X238800927Y-81824262D01*
X238814081Y-81841997D01*
X238825432Y-81860936D01*
X238834873Y-81880896D01*
X238842312Y-81901686D01*
X238847677Y-81923105D01*
X238850917Y-81944946D01*
X238852000Y-81967000D01*
X238852000Y-82417000D01*
X238850917Y-82439054D01*
X238847677Y-82460895D01*
X238842312Y-82482314D01*
X238834873Y-82503104D01*
X238825432Y-82523064D01*
X238814081Y-82542003D01*
X238800927Y-82559738D01*
X238786099Y-82576099D01*
X238769738Y-82590927D01*
X238752003Y-82604081D01*
X238733064Y-82615432D01*
X238713104Y-82624873D01*
X238692314Y-82632312D01*
X238670895Y-82637677D01*
X238649054Y-82640917D01*
X238627000Y-82642000D01*
X238177000Y-82642000D01*
X238154946Y-82640917D01*
X238133105Y-82637677D01*
X238111686Y-82632312D01*
X238090896Y-82624873D01*
X238070936Y-82615432D01*
X238051997Y-82604081D01*
X238034262Y-82590927D01*
X238017901Y-82576099D01*
X238003073Y-82559738D01*
X237989919Y-82542003D01*
X237978568Y-82523064D01*
X237969127Y-82503104D01*
X237961688Y-82482314D01*
X237956323Y-82460895D01*
X237953083Y-82439054D01*
X237952000Y-82417000D01*
X237952000Y-81967000D01*
X237953083Y-81944946D01*
X237956323Y-81923105D01*
X237961688Y-81901686D01*
X237969127Y-81880896D01*
X237978568Y-81860936D01*
X237989919Y-81841997D01*
X238003073Y-81824262D01*
X238017901Y-81807901D01*
X238034262Y-81793073D01*
X238051997Y-81779919D01*
X238070936Y-81768568D01*
X238090896Y-81759127D01*
X238111686Y-81751688D01*
X238133105Y-81746323D01*
X238154946Y-81743083D01*
X238177000Y-81742000D01*
X238627000Y-81742000D01*
X238649054Y-81743083D01*
G37*
G36*
X240889054Y-82863083D02*
G01*
X240910895Y-82866323D01*
X240932314Y-82871688D01*
X240953104Y-82879127D01*
X240973064Y-82888568D01*
X240992003Y-82899919D01*
X241009738Y-82913073D01*
X241026099Y-82927901D01*
X241040927Y-82944262D01*
X241054081Y-82961997D01*
X241065432Y-82980936D01*
X241074873Y-83000896D01*
X241082312Y-83021686D01*
X241087677Y-83043105D01*
X241090917Y-83064946D01*
X241092000Y-83087000D01*
X241092000Y-83537000D01*
X241090917Y-83559054D01*
X241087677Y-83580895D01*
X241082312Y-83602314D01*
X241074873Y-83623104D01*
X241065432Y-83643064D01*
X241054081Y-83662003D01*
X241040927Y-83679738D01*
X241026099Y-83696099D01*
X241009738Y-83710927D01*
X240992003Y-83724081D01*
X240973064Y-83735432D01*
X240953104Y-83744873D01*
X240932314Y-83752312D01*
X240910895Y-83757677D01*
X240889054Y-83760917D01*
X240867000Y-83762000D01*
X240417000Y-83762000D01*
X240394946Y-83760917D01*
X240373105Y-83757677D01*
X240351686Y-83752312D01*
X240330896Y-83744873D01*
X240310936Y-83735432D01*
X240291997Y-83724081D01*
X240274262Y-83710927D01*
X240257901Y-83696099D01*
X240243073Y-83679738D01*
X240229919Y-83662003D01*
X240218568Y-83643064D01*
X240209127Y-83623104D01*
X240201688Y-83602314D01*
X240196323Y-83580895D01*
X240193083Y-83559054D01*
X240192000Y-83537000D01*
X240192000Y-83087000D01*
X240193083Y-83064946D01*
X240196323Y-83043105D01*
X240201688Y-83021686D01*
X240209127Y-83000896D01*
X240218568Y-82980936D01*
X240229919Y-82961997D01*
X240243073Y-82944262D01*
X240257901Y-82927901D01*
X240274262Y-82913073D01*
X240291997Y-82899919D01*
X240310936Y-82888568D01*
X240330896Y-82879127D01*
X240351686Y-82871688D01*
X240373105Y-82866323D01*
X240394946Y-82863083D01*
X240417000Y-82862000D01*
X240867000Y-82862000D01*
X240889054Y-82863083D01*
G37*
G36*
X239769054Y-82863083D02*
G01*
X239790895Y-82866323D01*
X239812314Y-82871688D01*
X239833104Y-82879127D01*
X239853064Y-82888568D01*
X239872003Y-82899919D01*
X239889738Y-82913073D01*
X239906099Y-82927901D01*
X239920927Y-82944262D01*
X239934081Y-82961997D01*
X239945432Y-82980936D01*
X239954873Y-83000896D01*
X239962312Y-83021686D01*
X239967677Y-83043105D01*
X239970917Y-83064946D01*
X239972000Y-83087000D01*
X239972000Y-83537000D01*
X239970917Y-83559054D01*
X239967677Y-83580895D01*
X239962312Y-83602314D01*
X239954873Y-83623104D01*
X239945432Y-83643064D01*
X239934081Y-83662003D01*
X239920927Y-83679738D01*
X239906099Y-83696099D01*
X239889738Y-83710927D01*
X239872003Y-83724081D01*
X239853064Y-83735432D01*
X239833104Y-83744873D01*
X239812314Y-83752312D01*
X239790895Y-83757677D01*
X239769054Y-83760917D01*
X239747000Y-83762000D01*
X239297000Y-83762000D01*
X239274946Y-83760917D01*
X239253105Y-83757677D01*
X239231686Y-83752312D01*
X239210896Y-83744873D01*
X239190936Y-83735432D01*
X239171997Y-83724081D01*
X239154262Y-83710927D01*
X239137901Y-83696099D01*
X239123073Y-83679738D01*
X239109919Y-83662003D01*
X239098568Y-83643064D01*
X239089127Y-83623104D01*
X239081688Y-83602314D01*
X239076323Y-83580895D01*
X239073083Y-83559054D01*
X239072000Y-83537000D01*
X239072000Y-83087000D01*
X239073083Y-83064946D01*
X239076323Y-83043105D01*
X239081688Y-83021686D01*
X239089127Y-83000896D01*
X239098568Y-82980936D01*
X239109919Y-82961997D01*
X239123073Y-82944262D01*
X239137901Y-82927901D01*
X239154262Y-82913073D01*
X239171997Y-82899919D01*
X239190936Y-82888568D01*
X239210896Y-82879127D01*
X239231686Y-82871688D01*
X239253105Y-82866323D01*
X239274946Y-82863083D01*
X239297000Y-82862000D01*
X239747000Y-82862000D01*
X239769054Y-82863083D01*
G37*
G36*
X238649054Y-82863083D02*
G01*
X238670895Y-82866323D01*
X238692314Y-82871688D01*
X238713104Y-82879127D01*
X238733064Y-82888568D01*
X238752003Y-82899919D01*
X238769738Y-82913073D01*
X238786099Y-82927901D01*
X238800927Y-82944262D01*
X238814081Y-82961997D01*
X238825432Y-82980936D01*
X238834873Y-83000896D01*
X238842312Y-83021686D01*
X238847677Y-83043105D01*
X238850917Y-83064946D01*
X238852000Y-83087000D01*
X238852000Y-83537000D01*
X238850917Y-83559054D01*
X238847677Y-83580895D01*
X238842312Y-83602314D01*
X238834873Y-83623104D01*
X238825432Y-83643064D01*
X238814081Y-83662003D01*
X238800927Y-83679738D01*
X238786099Y-83696099D01*
X238769738Y-83710927D01*
X238752003Y-83724081D01*
X238733064Y-83735432D01*
X238713104Y-83744873D01*
X238692314Y-83752312D01*
X238670895Y-83757677D01*
X238649054Y-83760917D01*
X238627000Y-83762000D01*
X238177000Y-83762000D01*
X238154946Y-83760917D01*
X238133105Y-83757677D01*
X238111686Y-83752312D01*
X238090896Y-83744873D01*
X238070936Y-83735432D01*
X238051997Y-83724081D01*
X238034262Y-83710927D01*
X238017901Y-83696099D01*
X238003073Y-83679738D01*
X237989919Y-83662003D01*
X237978568Y-83643064D01*
X237969127Y-83623104D01*
X237961688Y-83602314D01*
X237956323Y-83580895D01*
X237953083Y-83559054D01*
X237952000Y-83537000D01*
X237952000Y-83087000D01*
X237953083Y-83064946D01*
X237956323Y-83043105D01*
X237961688Y-83021686D01*
X237969127Y-83000896D01*
X237978568Y-82980936D01*
X237989919Y-82961997D01*
X238003073Y-82944262D01*
X238017901Y-82927901D01*
X238034262Y-82913073D01*
X238051997Y-82899919D01*
X238070936Y-82888568D01*
X238090896Y-82879127D01*
X238111686Y-82871688D01*
X238133105Y-82866323D01*
X238154946Y-82863083D01*
X238177000Y-82862000D01*
X238627000Y-82862000D01*
X238649054Y-82863083D01*
G37*
G36*
X240889054Y-83983083D02*
G01*
X240910895Y-83986323D01*
X240932314Y-83991688D01*
X240953104Y-83999127D01*
X240973064Y-84008568D01*
X240992003Y-84019919D01*
X241009738Y-84033073D01*
X241026099Y-84047901D01*
X241040927Y-84064262D01*
X241054081Y-84081997D01*
X241065432Y-84100936D01*
X241074873Y-84120896D01*
X241082312Y-84141686D01*
X241087677Y-84163105D01*
X241090917Y-84184946D01*
X241092000Y-84207000D01*
X241092000Y-84657000D01*
X241090917Y-84679054D01*
X241087677Y-84700895D01*
X241082312Y-84722314D01*
X241074873Y-84743104D01*
X241065432Y-84763064D01*
X241054081Y-84782003D01*
X241040927Y-84799738D01*
X241026099Y-84816099D01*
X241009738Y-84830927D01*
X240992003Y-84844081D01*
X240973064Y-84855432D01*
X240953104Y-84864873D01*
X240932314Y-84872312D01*
X240910895Y-84877677D01*
X240889054Y-84880917D01*
X240867000Y-84882000D01*
X240417000Y-84882000D01*
X240394946Y-84880917D01*
X240373105Y-84877677D01*
X240351686Y-84872312D01*
X240330896Y-84864873D01*
X240310936Y-84855432D01*
X240291997Y-84844081D01*
X240274262Y-84830927D01*
X240257901Y-84816099D01*
X240243073Y-84799738D01*
X240229919Y-84782003D01*
X240218568Y-84763064D01*
X240209127Y-84743104D01*
X240201688Y-84722314D01*
X240196323Y-84700895D01*
X240193083Y-84679054D01*
X240192000Y-84657000D01*
X240192000Y-84207000D01*
X240193083Y-84184946D01*
X240196323Y-84163105D01*
X240201688Y-84141686D01*
X240209127Y-84120896D01*
X240218568Y-84100936D01*
X240229919Y-84081997D01*
X240243073Y-84064262D01*
X240257901Y-84047901D01*
X240274262Y-84033073D01*
X240291997Y-84019919D01*
X240310936Y-84008568D01*
X240330896Y-83999127D01*
X240351686Y-83991688D01*
X240373105Y-83986323D01*
X240394946Y-83983083D01*
X240417000Y-83982000D01*
X240867000Y-83982000D01*
X240889054Y-83983083D01*
G37*
G36*
X239769054Y-83983083D02*
G01*
X239790895Y-83986323D01*
X239812314Y-83991688D01*
X239833104Y-83999127D01*
X239853064Y-84008568D01*
X239872003Y-84019919D01*
X239889738Y-84033073D01*
X239906099Y-84047901D01*
X239920927Y-84064262D01*
X239934081Y-84081997D01*
X239945432Y-84100936D01*
X239954873Y-84120896D01*
X239962312Y-84141686D01*
X239967677Y-84163105D01*
X239970917Y-84184946D01*
X239972000Y-84207000D01*
X239972000Y-84657000D01*
X239970917Y-84679054D01*
X239967677Y-84700895D01*
X239962312Y-84722314D01*
X239954873Y-84743104D01*
X239945432Y-84763064D01*
X239934081Y-84782003D01*
X239920927Y-84799738D01*
X239906099Y-84816099D01*
X239889738Y-84830927D01*
X239872003Y-84844081D01*
X239853064Y-84855432D01*
X239833104Y-84864873D01*
X239812314Y-84872312D01*
X239790895Y-84877677D01*
X239769054Y-84880917D01*
X239747000Y-84882000D01*
X239297000Y-84882000D01*
X239274946Y-84880917D01*
X239253105Y-84877677D01*
X239231686Y-84872312D01*
X239210896Y-84864873D01*
X239190936Y-84855432D01*
X239171997Y-84844081D01*
X239154262Y-84830927D01*
X239137901Y-84816099D01*
X239123073Y-84799738D01*
X239109919Y-84782003D01*
X239098568Y-84763064D01*
X239089127Y-84743104D01*
X239081688Y-84722314D01*
X239076323Y-84700895D01*
X239073083Y-84679054D01*
X239072000Y-84657000D01*
X239072000Y-84207000D01*
X239073083Y-84184946D01*
X239076323Y-84163105D01*
X239081688Y-84141686D01*
X239089127Y-84120896D01*
X239098568Y-84100936D01*
X239109919Y-84081997D01*
X239123073Y-84064262D01*
X239137901Y-84047901D01*
X239154262Y-84033073D01*
X239171997Y-84019919D01*
X239190936Y-84008568D01*
X239210896Y-83999127D01*
X239231686Y-83991688D01*
X239253105Y-83986323D01*
X239274946Y-83983083D01*
X239297000Y-83982000D01*
X239747000Y-83982000D01*
X239769054Y-83983083D01*
G37*
G36*
X238649054Y-83983083D02*
G01*
X238670895Y-83986323D01*
X238692314Y-83991688D01*
X238713104Y-83999127D01*
X238733064Y-84008568D01*
X238752003Y-84019919D01*
X238769738Y-84033073D01*
X238786099Y-84047901D01*
X238800927Y-84064262D01*
X238814081Y-84081997D01*
X238825432Y-84100936D01*
X238834873Y-84120896D01*
X238842312Y-84141686D01*
X238847677Y-84163105D01*
X238850917Y-84184946D01*
X238852000Y-84207000D01*
X238852000Y-84657000D01*
X238850917Y-84679054D01*
X238847677Y-84700895D01*
X238842312Y-84722314D01*
X238834873Y-84743104D01*
X238825432Y-84763064D01*
X238814081Y-84782003D01*
X238800927Y-84799738D01*
X238786099Y-84816099D01*
X238769738Y-84830927D01*
X238752003Y-84844081D01*
X238733064Y-84855432D01*
X238713104Y-84864873D01*
X238692314Y-84872312D01*
X238670895Y-84877677D01*
X238649054Y-84880917D01*
X238627000Y-84882000D01*
X238177000Y-84882000D01*
X238154946Y-84880917D01*
X238133105Y-84877677D01*
X238111686Y-84872312D01*
X238090896Y-84864873D01*
X238070936Y-84855432D01*
X238051997Y-84844081D01*
X238034262Y-84830927D01*
X238017901Y-84816099D01*
X238003073Y-84799738D01*
X237989919Y-84782003D01*
X237978568Y-84763064D01*
X237969127Y-84743104D01*
X237961688Y-84722314D01*
X237956323Y-84700895D01*
X237953083Y-84679054D01*
X237952000Y-84657000D01*
X237952000Y-84207000D01*
X237953083Y-84184946D01*
X237956323Y-84163105D01*
X237961688Y-84141686D01*
X237969127Y-84120896D01*
X237978568Y-84100936D01*
X237989919Y-84081997D01*
X238003073Y-84064262D01*
X238017901Y-84047901D01*
X238034262Y-84033073D01*
X238051997Y-84019919D01*
X238070936Y-84008568D01*
X238090896Y-83999127D01*
X238111686Y-83991688D01*
X238133105Y-83986323D01*
X238154946Y-83983083D01*
X238177000Y-83982000D01*
X238627000Y-83982000D01*
X238649054Y-83983083D01*
G37*
G36*
X243772958Y-81897710D02*
G01*
X243787276Y-81899834D01*
X243801317Y-81903351D01*
X243814946Y-81908228D01*
X243828031Y-81914417D01*
X243840447Y-81921858D01*
X243852073Y-81930481D01*
X243862798Y-81940202D01*
X243872519Y-81950927D01*
X243881142Y-81962553D01*
X243888583Y-81974969D01*
X243894772Y-81988054D01*
X243899649Y-82001683D01*
X243903166Y-82015724D01*
X243905290Y-82030042D01*
X243906000Y-82044500D01*
X243906000Y-82339500D01*
X243905290Y-82353958D01*
X243903166Y-82368276D01*
X243899649Y-82382317D01*
X243894772Y-82395946D01*
X243888583Y-82409031D01*
X243881142Y-82421447D01*
X243872519Y-82433073D01*
X243862798Y-82443798D01*
X243852073Y-82453519D01*
X243840447Y-82462142D01*
X243828031Y-82469583D01*
X243814946Y-82475772D01*
X243801317Y-82480649D01*
X243787276Y-82484166D01*
X243772958Y-82486290D01*
X243758500Y-82487000D01*
X243413500Y-82487000D01*
X243399042Y-82486290D01*
X243384724Y-82484166D01*
X243370683Y-82480649D01*
X243357054Y-82475772D01*
X243343969Y-82469583D01*
X243331553Y-82462142D01*
X243319927Y-82453519D01*
X243309202Y-82443798D01*
X243299481Y-82433073D01*
X243290858Y-82421447D01*
X243283417Y-82409031D01*
X243277228Y-82395946D01*
X243272351Y-82382317D01*
X243268834Y-82368276D01*
X243266710Y-82353958D01*
X243266000Y-82339500D01*
X243266000Y-82044500D01*
X243266710Y-82030042D01*
X243268834Y-82015724D01*
X243272351Y-82001683D01*
X243277228Y-81988054D01*
X243283417Y-81974969D01*
X243290858Y-81962553D01*
X243299481Y-81950927D01*
X243309202Y-81940202D01*
X243319927Y-81930481D01*
X243331553Y-81921858D01*
X243343969Y-81914417D01*
X243357054Y-81908228D01*
X243370683Y-81903351D01*
X243384724Y-81899834D01*
X243399042Y-81897710D01*
X243413500Y-81897000D01*
X243758500Y-81897000D01*
X243772958Y-81897710D01*
G37*
G36*
X243772958Y-82867710D02*
G01*
X243787276Y-82869834D01*
X243801317Y-82873351D01*
X243814946Y-82878228D01*
X243828031Y-82884417D01*
X243840447Y-82891858D01*
X243852073Y-82900481D01*
X243862798Y-82910202D01*
X243872519Y-82920927D01*
X243881142Y-82932553D01*
X243888583Y-82944969D01*
X243894772Y-82958054D01*
X243899649Y-82971683D01*
X243903166Y-82985724D01*
X243905290Y-83000042D01*
X243906000Y-83014500D01*
X243906000Y-83309500D01*
X243905290Y-83323958D01*
X243903166Y-83338276D01*
X243899649Y-83352317D01*
X243894772Y-83365946D01*
X243888583Y-83379031D01*
X243881142Y-83391447D01*
X243872519Y-83403073D01*
X243862798Y-83413798D01*
X243852073Y-83423519D01*
X243840447Y-83432142D01*
X243828031Y-83439583D01*
X243814946Y-83445772D01*
X243801317Y-83450649D01*
X243787276Y-83454166D01*
X243772958Y-83456290D01*
X243758500Y-83457000D01*
X243413500Y-83457000D01*
X243399042Y-83456290D01*
X243384724Y-83454166D01*
X243370683Y-83450649D01*
X243357054Y-83445772D01*
X243343969Y-83439583D01*
X243331553Y-83432142D01*
X243319927Y-83423519D01*
X243309202Y-83413798D01*
X243299481Y-83403073D01*
X243290858Y-83391447D01*
X243283417Y-83379031D01*
X243277228Y-83365946D01*
X243272351Y-83352317D01*
X243268834Y-83338276D01*
X243266710Y-83323958D01*
X243266000Y-83309500D01*
X243266000Y-83014500D01*
X243266710Y-83000042D01*
X243268834Y-82985724D01*
X243272351Y-82971683D01*
X243277228Y-82958054D01*
X243283417Y-82944969D01*
X243290858Y-82932553D01*
X243299481Y-82920927D01*
X243309202Y-82910202D01*
X243319927Y-82900481D01*
X243331553Y-82891858D01*
X243343969Y-82884417D01*
X243357054Y-82878228D01*
X243370683Y-82873351D01*
X243384724Y-82869834D01*
X243399042Y-82867710D01*
X243413500Y-82867000D01*
X243758500Y-82867000D01*
X243772958Y-82867710D01*
G37*
G36*
X243772958Y-84056710D02*
G01*
X243787276Y-84058834D01*
X243801317Y-84062351D01*
X243814946Y-84067228D01*
X243828031Y-84073417D01*
X243840447Y-84080858D01*
X243852073Y-84089481D01*
X243862798Y-84099202D01*
X243872519Y-84109927D01*
X243881142Y-84121553D01*
X243888583Y-84133969D01*
X243894772Y-84147054D01*
X243899649Y-84160683D01*
X243903166Y-84174724D01*
X243905290Y-84189042D01*
X243906000Y-84203500D01*
X243906000Y-84498500D01*
X243905290Y-84512958D01*
X243903166Y-84527276D01*
X243899649Y-84541317D01*
X243894772Y-84554946D01*
X243888583Y-84568031D01*
X243881142Y-84580447D01*
X243872519Y-84592073D01*
X243862798Y-84602798D01*
X243852073Y-84612519D01*
X243840447Y-84621142D01*
X243828031Y-84628583D01*
X243814946Y-84634772D01*
X243801317Y-84639649D01*
X243787276Y-84643166D01*
X243772958Y-84645290D01*
X243758500Y-84646000D01*
X243413500Y-84646000D01*
X243399042Y-84645290D01*
X243384724Y-84643166D01*
X243370683Y-84639649D01*
X243357054Y-84634772D01*
X243343969Y-84628583D01*
X243331553Y-84621142D01*
X243319927Y-84612519D01*
X243309202Y-84602798D01*
X243299481Y-84592073D01*
X243290858Y-84580447D01*
X243283417Y-84568031D01*
X243277228Y-84554946D01*
X243272351Y-84541317D01*
X243268834Y-84527276D01*
X243266710Y-84512958D01*
X243266000Y-84498500D01*
X243266000Y-84203500D01*
X243266710Y-84189042D01*
X243268834Y-84174724D01*
X243272351Y-84160683D01*
X243277228Y-84147054D01*
X243283417Y-84133969D01*
X243290858Y-84121553D01*
X243299481Y-84109927D01*
X243309202Y-84099202D01*
X243319927Y-84089481D01*
X243331553Y-84080858D01*
X243343969Y-84073417D01*
X243357054Y-84067228D01*
X243370683Y-84062351D01*
X243384724Y-84058834D01*
X243399042Y-84056710D01*
X243413500Y-84056000D01*
X243758500Y-84056000D01*
X243772958Y-84056710D01*
G37*
G36*
X243772958Y-85026710D02*
G01*
X243787276Y-85028834D01*
X243801317Y-85032351D01*
X243814946Y-85037228D01*
X243828031Y-85043417D01*
X243840447Y-85050858D01*
X243852073Y-85059481D01*
X243862798Y-85069202D01*
X243872519Y-85079927D01*
X243881142Y-85091553D01*
X243888583Y-85103969D01*
X243894772Y-85117054D01*
X243899649Y-85130683D01*
X243903166Y-85144724D01*
X243905290Y-85159042D01*
X243906000Y-85173500D01*
X243906000Y-85468500D01*
X243905290Y-85482958D01*
X243903166Y-85497276D01*
X243899649Y-85511317D01*
X243894772Y-85524946D01*
X243888583Y-85538031D01*
X243881142Y-85550447D01*
X243872519Y-85562073D01*
X243862798Y-85572798D01*
X243852073Y-85582519D01*
X243840447Y-85591142D01*
X243828031Y-85598583D01*
X243814946Y-85604772D01*
X243801317Y-85609649D01*
X243787276Y-85613166D01*
X243772958Y-85615290D01*
X243758500Y-85616000D01*
X243413500Y-85616000D01*
X243399042Y-85615290D01*
X243384724Y-85613166D01*
X243370683Y-85609649D01*
X243357054Y-85604772D01*
X243343969Y-85598583D01*
X243331553Y-85591142D01*
X243319927Y-85582519D01*
X243309202Y-85572798D01*
X243299481Y-85562073D01*
X243290858Y-85550447D01*
X243283417Y-85538031D01*
X243277228Y-85524946D01*
X243272351Y-85511317D01*
X243268834Y-85497276D01*
X243266710Y-85482958D01*
X243266000Y-85468500D01*
X243266000Y-85173500D01*
X243266710Y-85159042D01*
X243268834Y-85144724D01*
X243272351Y-85130683D01*
X243277228Y-85117054D01*
X243283417Y-85103969D01*
X243290858Y-85091553D01*
X243299481Y-85079927D01*
X243309202Y-85069202D01*
X243319927Y-85059481D01*
X243331553Y-85050858D01*
X243343969Y-85043417D01*
X243357054Y-85037228D01*
X243370683Y-85032351D01*
X243384724Y-85028834D01*
X243399042Y-85026710D01*
X243413500Y-85026000D01*
X243758500Y-85026000D01*
X243772958Y-85026710D01*
G37*
G36*
X234247958Y-83040710D02*
G01*
X234262276Y-83042834D01*
X234276317Y-83046351D01*
X234289946Y-83051228D01*
X234303031Y-83057417D01*
X234315447Y-83064858D01*
X234327073Y-83073481D01*
X234337798Y-83083202D01*
X234347519Y-83093927D01*
X234356142Y-83105553D01*
X234363583Y-83117969D01*
X234369772Y-83131054D01*
X234374649Y-83144683D01*
X234378166Y-83158724D01*
X234380290Y-83173042D01*
X234381000Y-83187500D01*
X234381000Y-83482500D01*
X234380290Y-83496958D01*
X234378166Y-83511276D01*
X234374649Y-83525317D01*
X234369772Y-83538946D01*
X234363583Y-83552031D01*
X234356142Y-83564447D01*
X234347519Y-83576073D01*
X234337798Y-83586798D01*
X234327073Y-83596519D01*
X234315447Y-83605142D01*
X234303031Y-83612583D01*
X234289946Y-83618772D01*
X234276317Y-83623649D01*
X234262276Y-83627166D01*
X234247958Y-83629290D01*
X234233500Y-83630000D01*
X233888500Y-83630000D01*
X233874042Y-83629290D01*
X233859724Y-83627166D01*
X233845683Y-83623649D01*
X233832054Y-83618772D01*
X233818969Y-83612583D01*
X233806553Y-83605142D01*
X233794927Y-83596519D01*
X233784202Y-83586798D01*
X233774481Y-83576073D01*
X233765858Y-83564447D01*
X233758417Y-83552031D01*
X233752228Y-83538946D01*
X233747351Y-83525317D01*
X233743834Y-83511276D01*
X233741710Y-83496958D01*
X233741000Y-83482500D01*
X233741000Y-83187500D01*
X233741710Y-83173042D01*
X233743834Y-83158724D01*
X233747351Y-83144683D01*
X233752228Y-83131054D01*
X233758417Y-83117969D01*
X233765858Y-83105553D01*
X233774481Y-83093927D01*
X233784202Y-83083202D01*
X233794927Y-83073481D01*
X233806553Y-83064858D01*
X233818969Y-83057417D01*
X233832054Y-83051228D01*
X233845683Y-83046351D01*
X233859724Y-83042834D01*
X233874042Y-83040710D01*
X233888500Y-83040000D01*
X234233500Y-83040000D01*
X234247958Y-83040710D01*
G37*
G36*
X234247958Y-84010710D02*
G01*
X234262276Y-84012834D01*
X234276317Y-84016351D01*
X234289946Y-84021228D01*
X234303031Y-84027417D01*
X234315447Y-84034858D01*
X234327073Y-84043481D01*
X234337798Y-84053202D01*
X234347519Y-84063927D01*
X234356142Y-84075553D01*
X234363583Y-84087969D01*
X234369772Y-84101054D01*
X234374649Y-84114683D01*
X234378166Y-84128724D01*
X234380290Y-84143042D01*
X234381000Y-84157500D01*
X234381000Y-84452500D01*
X234380290Y-84466958D01*
X234378166Y-84481276D01*
X234374649Y-84495317D01*
X234369772Y-84508946D01*
X234363583Y-84522031D01*
X234356142Y-84534447D01*
X234347519Y-84546073D01*
X234337798Y-84556798D01*
X234327073Y-84566519D01*
X234315447Y-84575142D01*
X234303031Y-84582583D01*
X234289946Y-84588772D01*
X234276317Y-84593649D01*
X234262276Y-84597166D01*
X234247958Y-84599290D01*
X234233500Y-84600000D01*
X233888500Y-84600000D01*
X233874042Y-84599290D01*
X233859724Y-84597166D01*
X233845683Y-84593649D01*
X233832054Y-84588772D01*
X233818969Y-84582583D01*
X233806553Y-84575142D01*
X233794927Y-84566519D01*
X233784202Y-84556798D01*
X233774481Y-84546073D01*
X233765858Y-84534447D01*
X233758417Y-84522031D01*
X233752228Y-84508946D01*
X233747351Y-84495317D01*
X233743834Y-84481276D01*
X233741710Y-84466958D01*
X233741000Y-84452500D01*
X233741000Y-84157500D01*
X233741710Y-84143042D01*
X233743834Y-84128724D01*
X233747351Y-84114683D01*
X233752228Y-84101054D01*
X233758417Y-84087969D01*
X233765858Y-84075553D01*
X233774481Y-84063927D01*
X233784202Y-84053202D01*
X233794927Y-84043481D01*
X233806553Y-84034858D01*
X233818969Y-84027417D01*
X233832054Y-84021228D01*
X233845683Y-84016351D01*
X233859724Y-84012834D01*
X233874042Y-84010710D01*
X233888500Y-84010000D01*
X234233500Y-84010000D01*
X234247958Y-84010710D01*
G37*
G36*
X230183958Y-84010710D02*
G01*
X230198276Y-84012834D01*
X230212317Y-84016351D01*
X230225946Y-84021228D01*
X230239031Y-84027417D01*
X230251447Y-84034858D01*
X230263073Y-84043481D01*
X230273798Y-84053202D01*
X230283519Y-84063927D01*
X230292142Y-84075553D01*
X230299583Y-84087969D01*
X230305772Y-84101054D01*
X230310649Y-84114683D01*
X230314166Y-84128724D01*
X230316290Y-84143042D01*
X230317000Y-84157500D01*
X230317000Y-84452500D01*
X230316290Y-84466958D01*
X230314166Y-84481276D01*
X230310649Y-84495317D01*
X230305772Y-84508946D01*
X230299583Y-84522031D01*
X230292142Y-84534447D01*
X230283519Y-84546073D01*
X230273798Y-84556798D01*
X230263073Y-84566519D01*
X230251447Y-84575142D01*
X230239031Y-84582583D01*
X230225946Y-84588772D01*
X230212317Y-84593649D01*
X230198276Y-84597166D01*
X230183958Y-84599290D01*
X230169500Y-84600000D01*
X229824500Y-84600000D01*
X229810042Y-84599290D01*
X229795724Y-84597166D01*
X229781683Y-84593649D01*
X229768054Y-84588772D01*
X229754969Y-84582583D01*
X229742553Y-84575142D01*
X229730927Y-84566519D01*
X229720202Y-84556798D01*
X229710481Y-84546073D01*
X229701858Y-84534447D01*
X229694417Y-84522031D01*
X229688228Y-84508946D01*
X229683351Y-84495317D01*
X229679834Y-84481276D01*
X229677710Y-84466958D01*
X229677000Y-84452500D01*
X229677000Y-84157500D01*
X229677710Y-84143042D01*
X229679834Y-84128724D01*
X229683351Y-84114683D01*
X229688228Y-84101054D01*
X229694417Y-84087969D01*
X229701858Y-84075553D01*
X229710481Y-84063927D01*
X229720202Y-84053202D01*
X229730927Y-84043481D01*
X229742553Y-84034858D01*
X229754969Y-84027417D01*
X229768054Y-84021228D01*
X229781683Y-84016351D01*
X229795724Y-84012834D01*
X229810042Y-84010710D01*
X229824500Y-84010000D01*
X230169500Y-84010000D01*
X230183958Y-84010710D01*
G37*
G36*
X230183958Y-83040710D02*
G01*
X230198276Y-83042834D01*
X230212317Y-83046351D01*
X230225946Y-83051228D01*
X230239031Y-83057417D01*
X230251447Y-83064858D01*
X230263073Y-83073481D01*
X230273798Y-83083202D01*
X230283519Y-83093927D01*
X230292142Y-83105553D01*
X230299583Y-83117969D01*
X230305772Y-83131054D01*
X230310649Y-83144683D01*
X230314166Y-83158724D01*
X230316290Y-83173042D01*
X230317000Y-83187500D01*
X230317000Y-83482500D01*
X230316290Y-83496958D01*
X230314166Y-83511276D01*
X230310649Y-83525317D01*
X230305772Y-83538946D01*
X230299583Y-83552031D01*
X230292142Y-83564447D01*
X230283519Y-83576073D01*
X230273798Y-83586798D01*
X230263073Y-83596519D01*
X230251447Y-83605142D01*
X230239031Y-83612583D01*
X230225946Y-83618772D01*
X230212317Y-83623649D01*
X230198276Y-83627166D01*
X230183958Y-83629290D01*
X230169500Y-83630000D01*
X229824500Y-83630000D01*
X229810042Y-83629290D01*
X229795724Y-83627166D01*
X229781683Y-83623649D01*
X229768054Y-83618772D01*
X229754969Y-83612583D01*
X229742553Y-83605142D01*
X229730927Y-83596519D01*
X229720202Y-83586798D01*
X229710481Y-83576073D01*
X229701858Y-83564447D01*
X229694417Y-83552031D01*
X229688228Y-83538946D01*
X229683351Y-83525317D01*
X229679834Y-83511276D01*
X229677710Y-83496958D01*
X229677000Y-83482500D01*
X229677000Y-83187500D01*
X229677710Y-83173042D01*
X229679834Y-83158724D01*
X229683351Y-83144683D01*
X229688228Y-83131054D01*
X229694417Y-83117969D01*
X229701858Y-83105553D01*
X229710481Y-83093927D01*
X229720202Y-83083202D01*
X229730927Y-83073481D01*
X229742553Y-83064858D01*
X229754969Y-83057417D01*
X229768054Y-83051228D01*
X229781683Y-83046351D01*
X229795724Y-83042834D01*
X229810042Y-83040710D01*
X229824500Y-83040000D01*
X230169500Y-83040000D01*
X230183958Y-83040710D01*
G37*
G36*
X245451691Y-82838053D02*
G01*
X245472926Y-82841203D01*
X245493750Y-82846419D01*
X245513962Y-82853651D01*
X245533368Y-82862830D01*
X245551781Y-82873866D01*
X245569024Y-82886654D01*
X245584930Y-82901070D01*
X245599346Y-82916976D01*
X245612134Y-82934219D01*
X245623170Y-82952632D01*
X245632349Y-82972038D01*
X245639581Y-82992250D01*
X245644797Y-83013074D01*
X245647947Y-83034309D01*
X245649000Y-83055750D01*
X245649000Y-83568250D01*
X245647947Y-83589691D01*
X245644797Y-83610926D01*
X245639581Y-83631750D01*
X245632349Y-83651962D01*
X245623170Y-83671368D01*
X245612134Y-83689781D01*
X245599346Y-83707024D01*
X245584930Y-83722930D01*
X245569024Y-83737346D01*
X245551781Y-83750134D01*
X245533368Y-83761170D01*
X245513962Y-83770349D01*
X245493750Y-83777581D01*
X245472926Y-83782797D01*
X245451691Y-83785947D01*
X245430250Y-83787000D01*
X244992750Y-83787000D01*
X244971309Y-83785947D01*
X244950074Y-83782797D01*
X244929250Y-83777581D01*
X244909038Y-83770349D01*
X244889632Y-83761170D01*
X244871219Y-83750134D01*
X244853976Y-83737346D01*
X244838070Y-83722930D01*
X244823654Y-83707024D01*
X244810866Y-83689781D01*
X244799830Y-83671368D01*
X244790651Y-83651962D01*
X244783419Y-83631750D01*
X244778203Y-83610926D01*
X244775053Y-83589691D01*
X244774000Y-83568250D01*
X244774000Y-83055750D01*
X244775053Y-83034309D01*
X244778203Y-83013074D01*
X244783419Y-82992250D01*
X244790651Y-82972038D01*
X244799830Y-82952632D01*
X244810866Y-82934219D01*
X244823654Y-82916976D01*
X244838070Y-82901070D01*
X244853976Y-82886654D01*
X244871219Y-82873866D01*
X244889632Y-82862830D01*
X244909038Y-82853651D01*
X244929250Y-82846419D01*
X244950074Y-82841203D01*
X244971309Y-82838053D01*
X244992750Y-82837000D01*
X245430250Y-82837000D01*
X245451691Y-82838053D01*
G37*
G36*
X247026691Y-82838053D02*
G01*
X247047926Y-82841203D01*
X247068750Y-82846419D01*
X247088962Y-82853651D01*
X247108368Y-82862830D01*
X247126781Y-82873866D01*
X247144024Y-82886654D01*
X247159930Y-82901070D01*
X247174346Y-82916976D01*
X247187134Y-82934219D01*
X247198170Y-82952632D01*
X247207349Y-82972038D01*
X247214581Y-82992250D01*
X247219797Y-83013074D01*
X247222947Y-83034309D01*
X247224000Y-83055750D01*
X247224000Y-83568250D01*
X247222947Y-83589691D01*
X247219797Y-83610926D01*
X247214581Y-83631750D01*
X247207349Y-83651962D01*
X247198170Y-83671368D01*
X247187134Y-83689781D01*
X247174346Y-83707024D01*
X247159930Y-83722930D01*
X247144024Y-83737346D01*
X247126781Y-83750134D01*
X247108368Y-83761170D01*
X247088962Y-83770349D01*
X247068750Y-83777581D01*
X247047926Y-83782797D01*
X247026691Y-83785947D01*
X247005250Y-83787000D01*
X246567750Y-83787000D01*
X246546309Y-83785947D01*
X246525074Y-83782797D01*
X246504250Y-83777581D01*
X246484038Y-83770349D01*
X246464632Y-83761170D01*
X246446219Y-83750134D01*
X246428976Y-83737346D01*
X246413070Y-83722930D01*
X246398654Y-83707024D01*
X246385866Y-83689781D01*
X246374830Y-83671368D01*
X246365651Y-83651962D01*
X246358419Y-83631750D01*
X246353203Y-83610926D01*
X246350053Y-83589691D01*
X246349000Y-83568250D01*
X246349000Y-83055750D01*
X246350053Y-83034309D01*
X246353203Y-83013074D01*
X246358419Y-82992250D01*
X246365651Y-82972038D01*
X246374830Y-82952632D01*
X246385866Y-82934219D01*
X246398654Y-82916976D01*
X246413070Y-82901070D01*
X246428976Y-82886654D01*
X246446219Y-82873866D01*
X246464632Y-82862830D01*
X246484038Y-82853651D01*
X246504250Y-82846419D01*
X246525074Y-82841203D01*
X246546309Y-82838053D01*
X246567750Y-82837000D01*
X247005250Y-82837000D01*
X247026691Y-82838053D01*
G37*
G36*
X247026691Y-81187053D02*
G01*
X247047926Y-81190203D01*
X247068750Y-81195419D01*
X247088962Y-81202651D01*
X247108368Y-81211830D01*
X247126781Y-81222866D01*
X247144024Y-81235654D01*
X247159930Y-81250070D01*
X247174346Y-81265976D01*
X247187134Y-81283219D01*
X247198170Y-81301632D01*
X247207349Y-81321038D01*
X247214581Y-81341250D01*
X247219797Y-81362074D01*
X247222947Y-81383309D01*
X247224000Y-81404750D01*
X247224000Y-81917250D01*
X247222947Y-81938691D01*
X247219797Y-81959926D01*
X247214581Y-81980750D01*
X247207349Y-82000962D01*
X247198170Y-82020368D01*
X247187134Y-82038781D01*
X247174346Y-82056024D01*
X247159930Y-82071930D01*
X247144024Y-82086346D01*
X247126781Y-82099134D01*
X247108368Y-82110170D01*
X247088962Y-82119349D01*
X247068750Y-82126581D01*
X247047926Y-82131797D01*
X247026691Y-82134947D01*
X247005250Y-82136000D01*
X246567750Y-82136000D01*
X246546309Y-82134947D01*
X246525074Y-82131797D01*
X246504250Y-82126581D01*
X246484038Y-82119349D01*
X246464632Y-82110170D01*
X246446219Y-82099134D01*
X246428976Y-82086346D01*
X246413070Y-82071930D01*
X246398654Y-82056024D01*
X246385866Y-82038781D01*
X246374830Y-82020368D01*
X246365651Y-82000962D01*
X246358419Y-81980750D01*
X246353203Y-81959926D01*
X246350053Y-81938691D01*
X246349000Y-81917250D01*
X246349000Y-81404750D01*
X246350053Y-81383309D01*
X246353203Y-81362074D01*
X246358419Y-81341250D01*
X246365651Y-81321038D01*
X246374830Y-81301632D01*
X246385866Y-81283219D01*
X246398654Y-81265976D01*
X246413070Y-81250070D01*
X246428976Y-81235654D01*
X246446219Y-81222866D01*
X246464632Y-81211830D01*
X246484038Y-81202651D01*
X246504250Y-81195419D01*
X246525074Y-81190203D01*
X246546309Y-81187053D01*
X246567750Y-81186000D01*
X247005250Y-81186000D01*
X247026691Y-81187053D01*
G37*
G36*
X245451691Y-81187053D02*
G01*
X245472926Y-81190203D01*
X245493750Y-81195419D01*
X245513962Y-81202651D01*
X245533368Y-81211830D01*
X245551781Y-81222866D01*
X245569024Y-81235654D01*
X245584930Y-81250070D01*
X245599346Y-81265976D01*
X245612134Y-81283219D01*
X245623170Y-81301632D01*
X245632349Y-81321038D01*
X245639581Y-81341250D01*
X245644797Y-81362074D01*
X245647947Y-81383309D01*
X245649000Y-81404750D01*
X245649000Y-81917250D01*
X245647947Y-81938691D01*
X245644797Y-81959926D01*
X245639581Y-81980750D01*
X245632349Y-82000962D01*
X245623170Y-82020368D01*
X245612134Y-82038781D01*
X245599346Y-82056024D01*
X245584930Y-82071930D01*
X245569024Y-82086346D01*
X245551781Y-82099134D01*
X245533368Y-82110170D01*
X245513962Y-82119349D01*
X245493750Y-82126581D01*
X245472926Y-82131797D01*
X245451691Y-82134947D01*
X245430250Y-82136000D01*
X244992750Y-82136000D01*
X244971309Y-82134947D01*
X244950074Y-82131797D01*
X244929250Y-82126581D01*
X244909038Y-82119349D01*
X244889632Y-82110170D01*
X244871219Y-82099134D01*
X244853976Y-82086346D01*
X244838070Y-82071930D01*
X244823654Y-82056024D01*
X244810866Y-82038781D01*
X244799830Y-82020368D01*
X244790651Y-82000962D01*
X244783419Y-81980750D01*
X244778203Y-81959926D01*
X244775053Y-81938691D01*
X244774000Y-81917250D01*
X244774000Y-81404750D01*
X244775053Y-81383309D01*
X244778203Y-81362074D01*
X244783419Y-81341250D01*
X244790651Y-81321038D01*
X244799830Y-81301632D01*
X244810866Y-81283219D01*
X244823654Y-81265976D01*
X244838070Y-81250070D01*
X244853976Y-81235654D01*
X244871219Y-81222866D01*
X244889632Y-81211830D01*
X244909038Y-81202651D01*
X244929250Y-81195419D01*
X244950074Y-81190203D01*
X244971309Y-81187053D01*
X244992750Y-81186000D01*
X245430250Y-81186000D01*
X245451691Y-81187053D01*
G37*
G36*
X241359958Y-92646710D02*
G01*
X241374276Y-92648834D01*
X241388317Y-92652351D01*
X241401946Y-92657228D01*
X241415031Y-92663417D01*
X241427447Y-92670858D01*
X241439073Y-92679481D01*
X241449798Y-92689202D01*
X241459519Y-92699927D01*
X241468142Y-92711553D01*
X241475583Y-92723969D01*
X241481772Y-92737054D01*
X241486649Y-92750683D01*
X241490166Y-92764724D01*
X241492290Y-92779042D01*
X241493000Y-92793500D01*
X241493000Y-93088500D01*
X241492290Y-93102958D01*
X241490166Y-93117276D01*
X241486649Y-93131317D01*
X241481772Y-93144946D01*
X241475583Y-93158031D01*
X241468142Y-93170447D01*
X241459519Y-93182073D01*
X241449798Y-93192798D01*
X241439073Y-93202519D01*
X241427447Y-93211142D01*
X241415031Y-93218583D01*
X241401946Y-93224772D01*
X241388317Y-93229649D01*
X241374276Y-93233166D01*
X241359958Y-93235290D01*
X241345500Y-93236000D01*
X241000500Y-93236000D01*
X240986042Y-93235290D01*
X240971724Y-93233166D01*
X240957683Y-93229649D01*
X240944054Y-93224772D01*
X240930969Y-93218583D01*
X240918553Y-93211142D01*
X240906927Y-93202519D01*
X240896202Y-93192798D01*
X240886481Y-93182073D01*
X240877858Y-93170447D01*
X240870417Y-93158031D01*
X240864228Y-93144946D01*
X240859351Y-93131317D01*
X240855834Y-93117276D01*
X240853710Y-93102958D01*
X240853000Y-93088500D01*
X240853000Y-92793500D01*
X240853710Y-92779042D01*
X240855834Y-92764724D01*
X240859351Y-92750683D01*
X240864228Y-92737054D01*
X240870417Y-92723969D01*
X240877858Y-92711553D01*
X240886481Y-92699927D01*
X240896202Y-92689202D01*
X240906927Y-92679481D01*
X240918553Y-92670858D01*
X240930969Y-92663417D01*
X240944054Y-92657228D01*
X240957683Y-92652351D01*
X240971724Y-92648834D01*
X240986042Y-92646710D01*
X241000500Y-92646000D01*
X241345500Y-92646000D01*
X241359958Y-92646710D01*
G37*
G36*
X241359958Y-91676710D02*
G01*
X241374276Y-91678834D01*
X241388317Y-91682351D01*
X241401946Y-91687228D01*
X241415031Y-91693417D01*
X241427447Y-91700858D01*
X241439073Y-91709481D01*
X241449798Y-91719202D01*
X241459519Y-91729927D01*
X241468142Y-91741553D01*
X241475583Y-91753969D01*
X241481772Y-91767054D01*
X241486649Y-91780683D01*
X241490166Y-91794724D01*
X241492290Y-91809042D01*
X241493000Y-91823500D01*
X241493000Y-92118500D01*
X241492290Y-92132958D01*
X241490166Y-92147276D01*
X241486649Y-92161317D01*
X241481772Y-92174946D01*
X241475583Y-92188031D01*
X241468142Y-92200447D01*
X241459519Y-92212073D01*
X241449798Y-92222798D01*
X241439073Y-92232519D01*
X241427447Y-92241142D01*
X241415031Y-92248583D01*
X241401946Y-92254772D01*
X241388317Y-92259649D01*
X241374276Y-92263166D01*
X241359958Y-92265290D01*
X241345500Y-92266000D01*
X241000500Y-92266000D01*
X240986042Y-92265290D01*
X240971724Y-92263166D01*
X240957683Y-92259649D01*
X240944054Y-92254772D01*
X240930969Y-92248583D01*
X240918553Y-92241142D01*
X240906927Y-92232519D01*
X240896202Y-92222798D01*
X240886481Y-92212073D01*
X240877858Y-92200447D01*
X240870417Y-92188031D01*
X240864228Y-92174946D01*
X240859351Y-92161317D01*
X240855834Y-92147276D01*
X240853710Y-92132958D01*
X240853000Y-92118500D01*
X240853000Y-91823500D01*
X240853710Y-91809042D01*
X240855834Y-91794724D01*
X240859351Y-91780683D01*
X240864228Y-91767054D01*
X240870417Y-91753969D01*
X240877858Y-91741553D01*
X240886481Y-91729927D01*
X240896202Y-91719202D01*
X240906927Y-91709481D01*
X240918553Y-91700858D01*
X240930969Y-91693417D01*
X240944054Y-91687228D01*
X240957683Y-91682351D01*
X240971724Y-91678834D01*
X240986042Y-91676710D01*
X241000500Y-91676000D01*
X241345500Y-91676000D01*
X241359958Y-91676710D01*
G37*
G36*
X238311958Y-92646710D02*
G01*
X238326276Y-92648834D01*
X238340317Y-92652351D01*
X238353946Y-92657228D01*
X238367031Y-92663417D01*
X238379447Y-92670858D01*
X238391073Y-92679481D01*
X238401798Y-92689202D01*
X238411519Y-92699927D01*
X238420142Y-92711553D01*
X238427583Y-92723969D01*
X238433772Y-92737054D01*
X238438649Y-92750683D01*
X238442166Y-92764724D01*
X238444290Y-92779042D01*
X238445000Y-92793500D01*
X238445000Y-93088500D01*
X238444290Y-93102958D01*
X238442166Y-93117276D01*
X238438649Y-93131317D01*
X238433772Y-93144946D01*
X238427583Y-93158031D01*
X238420142Y-93170447D01*
X238411519Y-93182073D01*
X238401798Y-93192798D01*
X238391073Y-93202519D01*
X238379447Y-93211142D01*
X238367031Y-93218583D01*
X238353946Y-93224772D01*
X238340317Y-93229649D01*
X238326276Y-93233166D01*
X238311958Y-93235290D01*
X238297500Y-93236000D01*
X237952500Y-93236000D01*
X237938042Y-93235290D01*
X237923724Y-93233166D01*
X237909683Y-93229649D01*
X237896054Y-93224772D01*
X237882969Y-93218583D01*
X237870553Y-93211142D01*
X237858927Y-93202519D01*
X237848202Y-93192798D01*
X237838481Y-93182073D01*
X237829858Y-93170447D01*
X237822417Y-93158031D01*
X237816228Y-93144946D01*
X237811351Y-93131317D01*
X237807834Y-93117276D01*
X237805710Y-93102958D01*
X237805000Y-93088500D01*
X237805000Y-92793500D01*
X237805710Y-92779042D01*
X237807834Y-92764724D01*
X237811351Y-92750683D01*
X237816228Y-92737054D01*
X237822417Y-92723969D01*
X237829858Y-92711553D01*
X237838481Y-92699927D01*
X237848202Y-92689202D01*
X237858927Y-92679481D01*
X237870553Y-92670858D01*
X237882969Y-92663417D01*
X237896054Y-92657228D01*
X237909683Y-92652351D01*
X237923724Y-92648834D01*
X237938042Y-92646710D01*
X237952500Y-92646000D01*
X238297500Y-92646000D01*
X238311958Y-92646710D01*
G37*
G36*
X238311958Y-91676710D02*
G01*
X238326276Y-91678834D01*
X238340317Y-91682351D01*
X238353946Y-91687228D01*
X238367031Y-91693417D01*
X238379447Y-91700858D01*
X238391073Y-91709481D01*
X238401798Y-91719202D01*
X238411519Y-91729927D01*
X238420142Y-91741553D01*
X238427583Y-91753969D01*
X238433772Y-91767054D01*
X238438649Y-91780683D01*
X238442166Y-91794724D01*
X238444290Y-91809042D01*
X238445000Y-91823500D01*
X238445000Y-92118500D01*
X238444290Y-92132958D01*
X238442166Y-92147276D01*
X238438649Y-92161317D01*
X238433772Y-92174946D01*
X238427583Y-92188031D01*
X238420142Y-92200447D01*
X238411519Y-92212073D01*
X238401798Y-92222798D01*
X238391073Y-92232519D01*
X238379447Y-92241142D01*
X238367031Y-92248583D01*
X238353946Y-92254772D01*
X238340317Y-92259649D01*
X238326276Y-92263166D01*
X238311958Y-92265290D01*
X238297500Y-92266000D01*
X237952500Y-92266000D01*
X237938042Y-92265290D01*
X237923724Y-92263166D01*
X237909683Y-92259649D01*
X237896054Y-92254772D01*
X237882969Y-92248583D01*
X237870553Y-92241142D01*
X237858927Y-92232519D01*
X237848202Y-92222798D01*
X237838481Y-92212073D01*
X237829858Y-92200447D01*
X237822417Y-92188031D01*
X237816228Y-92174946D01*
X237811351Y-92161317D01*
X237807834Y-92147276D01*
X237805710Y-92132958D01*
X237805000Y-92118500D01*
X237805000Y-91823500D01*
X237805710Y-91809042D01*
X237807834Y-91794724D01*
X237811351Y-91780683D01*
X237816228Y-91767054D01*
X237822417Y-91753969D01*
X237829858Y-91741553D01*
X237838481Y-91729927D01*
X237848202Y-91719202D01*
X237858927Y-91709481D01*
X237870553Y-91700858D01*
X237882969Y-91693417D01*
X237896054Y-91687228D01*
X237909683Y-91682351D01*
X237923724Y-91678834D01*
X237938042Y-91676710D01*
X237952500Y-91676000D01*
X238297500Y-91676000D01*
X238311958Y-91676710D01*
G37*
G36*
X249995958Y-78168710D02*
G01*
X250010276Y-78170834D01*
X250024317Y-78174351D01*
X250037946Y-78179228D01*
X250051031Y-78185417D01*
X250063447Y-78192858D01*
X250075073Y-78201481D01*
X250085798Y-78211202D01*
X250095519Y-78221927D01*
X250104142Y-78233553D01*
X250111583Y-78245969D01*
X250117772Y-78259054D01*
X250122649Y-78272683D01*
X250126166Y-78286724D01*
X250128290Y-78301042D01*
X250129000Y-78315500D01*
X250129000Y-78610500D01*
X250128290Y-78624958D01*
X250126166Y-78639276D01*
X250122649Y-78653317D01*
X250117772Y-78666946D01*
X250111583Y-78680031D01*
X250104142Y-78692447D01*
X250095519Y-78704073D01*
X250085798Y-78714798D01*
X250075073Y-78724519D01*
X250063447Y-78733142D01*
X250051031Y-78740583D01*
X250037946Y-78746772D01*
X250024317Y-78751649D01*
X250010276Y-78755166D01*
X249995958Y-78757290D01*
X249981500Y-78758000D01*
X249636500Y-78758000D01*
X249622042Y-78757290D01*
X249607724Y-78755166D01*
X249593683Y-78751649D01*
X249580054Y-78746772D01*
X249566969Y-78740583D01*
X249554553Y-78733142D01*
X249542927Y-78724519D01*
X249532202Y-78714798D01*
X249522481Y-78704073D01*
X249513858Y-78692447D01*
X249506417Y-78680031D01*
X249500228Y-78666946D01*
X249495351Y-78653317D01*
X249491834Y-78639276D01*
X249489710Y-78624958D01*
X249489000Y-78610500D01*
X249489000Y-78315500D01*
X249489710Y-78301042D01*
X249491834Y-78286724D01*
X249495351Y-78272683D01*
X249500228Y-78259054D01*
X249506417Y-78245969D01*
X249513858Y-78233553D01*
X249522481Y-78221927D01*
X249532202Y-78211202D01*
X249542927Y-78201481D01*
X249554553Y-78192858D01*
X249566969Y-78185417D01*
X249580054Y-78179228D01*
X249593683Y-78174351D01*
X249607724Y-78170834D01*
X249622042Y-78168710D01*
X249636500Y-78168000D01*
X249981500Y-78168000D01*
X249995958Y-78168710D01*
G37*
G36*
X249995958Y-77198710D02*
G01*
X250010276Y-77200834D01*
X250024317Y-77204351D01*
X250037946Y-77209228D01*
X250051031Y-77215417D01*
X250063447Y-77222858D01*
X250075073Y-77231481D01*
X250085798Y-77241202D01*
X250095519Y-77251927D01*
X250104142Y-77263553D01*
X250111583Y-77275969D01*
X250117772Y-77289054D01*
X250122649Y-77302683D01*
X250126166Y-77316724D01*
X250128290Y-77331042D01*
X250129000Y-77345500D01*
X250129000Y-77640500D01*
X250128290Y-77654958D01*
X250126166Y-77669276D01*
X250122649Y-77683317D01*
X250117772Y-77696946D01*
X250111583Y-77710031D01*
X250104142Y-77722447D01*
X250095519Y-77734073D01*
X250085798Y-77744798D01*
X250075073Y-77754519D01*
X250063447Y-77763142D01*
X250051031Y-77770583D01*
X250037946Y-77776772D01*
X250024317Y-77781649D01*
X250010276Y-77785166D01*
X249995958Y-77787290D01*
X249981500Y-77788000D01*
X249636500Y-77788000D01*
X249622042Y-77787290D01*
X249607724Y-77785166D01*
X249593683Y-77781649D01*
X249580054Y-77776772D01*
X249566969Y-77770583D01*
X249554553Y-77763142D01*
X249542927Y-77754519D01*
X249532202Y-77744798D01*
X249522481Y-77734073D01*
X249513858Y-77722447D01*
X249506417Y-77710031D01*
X249500228Y-77696946D01*
X249495351Y-77683317D01*
X249491834Y-77669276D01*
X249489710Y-77654958D01*
X249489000Y-77640500D01*
X249489000Y-77345500D01*
X249489710Y-77331042D01*
X249491834Y-77316724D01*
X249495351Y-77302683D01*
X249500228Y-77289054D01*
X249506417Y-77275969D01*
X249513858Y-77263553D01*
X249522481Y-77251927D01*
X249532202Y-77241202D01*
X249542927Y-77231481D01*
X249554553Y-77222858D01*
X249566969Y-77215417D01*
X249580054Y-77209228D01*
X249593683Y-77204351D01*
X249607724Y-77200834D01*
X249622042Y-77198710D01*
X249636500Y-77198000D01*
X249981500Y-77198000D01*
X249995958Y-77198710D01*
G37*
D17*
X232679000Y-84770000D03*
X231379000Y-84770000D03*
X232029000Y-82870000D03*
X232029000Y-84770000D03*
X231379000Y-82870000D03*
X232679000Y-82870000D03*
D18*
X242595000Y-94645000D03*
X241795000Y-94645000D03*
X242595000Y-94645000D03*
X241795000Y-94645000D03*
X236195000Y-94645000D03*
X236195000Y-94645000D03*
X236995000Y-94645000D03*
X236995000Y-94645000D03*
D19*
X241145000Y-94645000D03*
X240145000Y-94645000D03*
X240645000Y-94645000D03*
X238145000Y-94645000D03*
X237645000Y-94645000D03*
X239645000Y-94645000D03*
X239145000Y-94645000D03*
X238645000Y-94645000D03*
D20*
X243586000Y-92049600D03*
X243586000Y-88544400D03*
D21*
X240622000Y-88458000D03*
X240622000Y-90358000D03*
X238422000Y-90358000D03*
D22*
X238422000Y-88638000D03*
D11*
G36*
X234338691Y-87295053D02*
G01*
X234359926Y-87298203D01*
X234380750Y-87303419D01*
X234400962Y-87310651D01*
X234420368Y-87319830D01*
X234438781Y-87330866D01*
X234456024Y-87343654D01*
X234471930Y-87358070D01*
X234486346Y-87373976D01*
X234499134Y-87391219D01*
X234510170Y-87409632D01*
X234519349Y-87429038D01*
X234526581Y-87449250D01*
X234531797Y-87470074D01*
X234534947Y-87491309D01*
X234536000Y-87512750D01*
X234536000Y-87950250D01*
X234534947Y-87971691D01*
X234531797Y-87992926D01*
X234526581Y-88013750D01*
X234519349Y-88033962D01*
X234510170Y-88053368D01*
X234499134Y-88071781D01*
X234486346Y-88089024D01*
X234471930Y-88104930D01*
X234456024Y-88119346D01*
X234438781Y-88132134D01*
X234420368Y-88143170D01*
X234400962Y-88152349D01*
X234380750Y-88159581D01*
X234359926Y-88164797D01*
X234338691Y-88167947D01*
X234317250Y-88169000D01*
X233804750Y-88169000D01*
X233783309Y-88167947D01*
X233762074Y-88164797D01*
X233741250Y-88159581D01*
X233721038Y-88152349D01*
X233701632Y-88143170D01*
X233683219Y-88132134D01*
X233665976Y-88119346D01*
X233650070Y-88104930D01*
X233635654Y-88089024D01*
X233622866Y-88071781D01*
X233611830Y-88053368D01*
X233602651Y-88033962D01*
X233595419Y-88013750D01*
X233590203Y-87992926D01*
X233587053Y-87971691D01*
X233586000Y-87950250D01*
X233586000Y-87512750D01*
X233587053Y-87491309D01*
X233590203Y-87470074D01*
X233595419Y-87449250D01*
X233602651Y-87429038D01*
X233611830Y-87409632D01*
X233622866Y-87391219D01*
X233635654Y-87373976D01*
X233650070Y-87358070D01*
X233665976Y-87343654D01*
X233683219Y-87330866D01*
X233701632Y-87319830D01*
X233721038Y-87310651D01*
X233741250Y-87303419D01*
X233762074Y-87298203D01*
X233783309Y-87295053D01*
X233804750Y-87294000D01*
X234317250Y-87294000D01*
X234338691Y-87295053D01*
G37*
G36*
X234338691Y-88870053D02*
G01*
X234359926Y-88873203D01*
X234380750Y-88878419D01*
X234400962Y-88885651D01*
X234420368Y-88894830D01*
X234438781Y-88905866D01*
X234456024Y-88918654D01*
X234471930Y-88933070D01*
X234486346Y-88948976D01*
X234499134Y-88966219D01*
X234510170Y-88984632D01*
X234519349Y-89004038D01*
X234526581Y-89024250D01*
X234531797Y-89045074D01*
X234534947Y-89066309D01*
X234536000Y-89087750D01*
X234536000Y-89525250D01*
X234534947Y-89546691D01*
X234531797Y-89567926D01*
X234526581Y-89588750D01*
X234519349Y-89608962D01*
X234510170Y-89628368D01*
X234499134Y-89646781D01*
X234486346Y-89664024D01*
X234471930Y-89679930D01*
X234456024Y-89694346D01*
X234438781Y-89707134D01*
X234420368Y-89718170D01*
X234400962Y-89727349D01*
X234380750Y-89734581D01*
X234359926Y-89739797D01*
X234338691Y-89742947D01*
X234317250Y-89744000D01*
X233804750Y-89744000D01*
X233783309Y-89742947D01*
X233762074Y-89739797D01*
X233741250Y-89734581D01*
X233721038Y-89727349D01*
X233701632Y-89718170D01*
X233683219Y-89707134D01*
X233665976Y-89694346D01*
X233650070Y-89679930D01*
X233635654Y-89664024D01*
X233622866Y-89646781D01*
X233611830Y-89628368D01*
X233602651Y-89608962D01*
X233595419Y-89588750D01*
X233590203Y-89567926D01*
X233587053Y-89546691D01*
X233586000Y-89525250D01*
X233586000Y-89087750D01*
X233587053Y-89066309D01*
X233590203Y-89045074D01*
X233595419Y-89024250D01*
X233602651Y-89004038D01*
X233611830Y-88984632D01*
X233622866Y-88966219D01*
X233635654Y-88948976D01*
X233650070Y-88933070D01*
X233665976Y-88918654D01*
X233683219Y-88905866D01*
X233701632Y-88894830D01*
X233721038Y-88885651D01*
X233741250Y-88878419D01*
X233762074Y-88873203D01*
X233783309Y-88870053D01*
X233804750Y-88869000D01*
X234317250Y-88869000D01*
X234338691Y-88870053D01*
G37*
G36*
X235989691Y-87295053D02*
G01*
X236010926Y-87298203D01*
X236031750Y-87303419D01*
X236051962Y-87310651D01*
X236071368Y-87319830D01*
X236089781Y-87330866D01*
X236107024Y-87343654D01*
X236122930Y-87358070D01*
X236137346Y-87373976D01*
X236150134Y-87391219D01*
X236161170Y-87409632D01*
X236170349Y-87429038D01*
X236177581Y-87449250D01*
X236182797Y-87470074D01*
X236185947Y-87491309D01*
X236187000Y-87512750D01*
X236187000Y-87950250D01*
X236185947Y-87971691D01*
X236182797Y-87992926D01*
X236177581Y-88013750D01*
X236170349Y-88033962D01*
X236161170Y-88053368D01*
X236150134Y-88071781D01*
X236137346Y-88089024D01*
X236122930Y-88104930D01*
X236107024Y-88119346D01*
X236089781Y-88132134D01*
X236071368Y-88143170D01*
X236051962Y-88152349D01*
X236031750Y-88159581D01*
X236010926Y-88164797D01*
X235989691Y-88167947D01*
X235968250Y-88169000D01*
X235455750Y-88169000D01*
X235434309Y-88167947D01*
X235413074Y-88164797D01*
X235392250Y-88159581D01*
X235372038Y-88152349D01*
X235352632Y-88143170D01*
X235334219Y-88132134D01*
X235316976Y-88119346D01*
X235301070Y-88104930D01*
X235286654Y-88089024D01*
X235273866Y-88071781D01*
X235262830Y-88053368D01*
X235253651Y-88033962D01*
X235246419Y-88013750D01*
X235241203Y-87992926D01*
X235238053Y-87971691D01*
X235237000Y-87950250D01*
X235237000Y-87512750D01*
X235238053Y-87491309D01*
X235241203Y-87470074D01*
X235246419Y-87449250D01*
X235253651Y-87429038D01*
X235262830Y-87409632D01*
X235273866Y-87391219D01*
X235286654Y-87373976D01*
X235301070Y-87358070D01*
X235316976Y-87343654D01*
X235334219Y-87330866D01*
X235352632Y-87319830D01*
X235372038Y-87310651D01*
X235392250Y-87303419D01*
X235413074Y-87298203D01*
X235434309Y-87295053D01*
X235455750Y-87294000D01*
X235968250Y-87294000D01*
X235989691Y-87295053D01*
G37*
G36*
X235989691Y-88870053D02*
G01*
X236010926Y-88873203D01*
X236031750Y-88878419D01*
X236051962Y-88885651D01*
X236071368Y-88894830D01*
X236089781Y-88905866D01*
X236107024Y-88918654D01*
X236122930Y-88933070D01*
X236137346Y-88948976D01*
X236150134Y-88966219D01*
X236161170Y-88984632D01*
X236170349Y-89004038D01*
X236177581Y-89024250D01*
X236182797Y-89045074D01*
X236185947Y-89066309D01*
X236187000Y-89087750D01*
X236187000Y-89525250D01*
X236185947Y-89546691D01*
X236182797Y-89567926D01*
X236177581Y-89588750D01*
X236170349Y-89608962D01*
X236161170Y-89628368D01*
X236150134Y-89646781D01*
X236137346Y-89664024D01*
X236122930Y-89679930D01*
X236107024Y-89694346D01*
X236089781Y-89707134D01*
X236071368Y-89718170D01*
X236051962Y-89727349D01*
X236031750Y-89734581D01*
X236010926Y-89739797D01*
X235989691Y-89742947D01*
X235968250Y-89744000D01*
X235455750Y-89744000D01*
X235434309Y-89742947D01*
X235413074Y-89739797D01*
X235392250Y-89734581D01*
X235372038Y-89727349D01*
X235352632Y-89718170D01*
X235334219Y-89707134D01*
X235316976Y-89694346D01*
X235301070Y-89679930D01*
X235286654Y-89664024D01*
X235273866Y-89646781D01*
X235262830Y-89628368D01*
X235253651Y-89608962D01*
X235246419Y-89588750D01*
X235241203Y-89567926D01*
X235238053Y-89546691D01*
X235237000Y-89525250D01*
X235237000Y-89087750D01*
X235238053Y-89066309D01*
X235241203Y-89045074D01*
X235246419Y-89024250D01*
X235253651Y-89004038D01*
X235262830Y-88984632D01*
X235273866Y-88966219D01*
X235286654Y-88948976D01*
X235301070Y-88933070D01*
X235316976Y-88918654D01*
X235334219Y-88905866D01*
X235352632Y-88894830D01*
X235372038Y-88885651D01*
X235392250Y-88878419D01*
X235413074Y-88873203D01*
X235434309Y-88870053D01*
X235455750Y-88869000D01*
X235968250Y-88869000D01*
X235989691Y-88870053D01*
G37*
G36*
X246911691Y-86330053D02*
G01*
X246932926Y-86333203D01*
X246953750Y-86338419D01*
X246973962Y-86345651D01*
X246993368Y-86354830D01*
X247011781Y-86365866D01*
X247029024Y-86378654D01*
X247044930Y-86393070D01*
X247059346Y-86408976D01*
X247072134Y-86426219D01*
X247083170Y-86444632D01*
X247092349Y-86464038D01*
X247099581Y-86484250D01*
X247104797Y-86505074D01*
X247107947Y-86526309D01*
X247109000Y-86547750D01*
X247109000Y-86985250D01*
X247107947Y-87006691D01*
X247104797Y-87027926D01*
X247099581Y-87048750D01*
X247092349Y-87068962D01*
X247083170Y-87088368D01*
X247072134Y-87106781D01*
X247059346Y-87124024D01*
X247044930Y-87139930D01*
X247029024Y-87154346D01*
X247011781Y-87167134D01*
X246993368Y-87178170D01*
X246973962Y-87187349D01*
X246953750Y-87194581D01*
X246932926Y-87199797D01*
X246911691Y-87202947D01*
X246890250Y-87204000D01*
X246377750Y-87204000D01*
X246356309Y-87202947D01*
X246335074Y-87199797D01*
X246314250Y-87194581D01*
X246294038Y-87187349D01*
X246274632Y-87178170D01*
X246256219Y-87167134D01*
X246238976Y-87154346D01*
X246223070Y-87139930D01*
X246208654Y-87124024D01*
X246195866Y-87106781D01*
X246184830Y-87088368D01*
X246175651Y-87068962D01*
X246168419Y-87048750D01*
X246163203Y-87027926D01*
X246160053Y-87006691D01*
X246159000Y-86985250D01*
X246159000Y-86547750D01*
X246160053Y-86526309D01*
X246163203Y-86505074D01*
X246168419Y-86484250D01*
X246175651Y-86464038D01*
X246184830Y-86444632D01*
X246195866Y-86426219D01*
X246208654Y-86408976D01*
X246223070Y-86393070D01*
X246238976Y-86378654D01*
X246256219Y-86365866D01*
X246274632Y-86354830D01*
X246294038Y-86345651D01*
X246314250Y-86338419D01*
X246335074Y-86333203D01*
X246356309Y-86330053D01*
X246377750Y-86329000D01*
X246890250Y-86329000D01*
X246911691Y-86330053D01*
G37*
G36*
X246911691Y-84755053D02*
G01*
X246932926Y-84758203D01*
X246953750Y-84763419D01*
X246973962Y-84770651D01*
X246993368Y-84779830D01*
X247011781Y-84790866D01*
X247029024Y-84803654D01*
X247044930Y-84818070D01*
X247059346Y-84833976D01*
X247072134Y-84851219D01*
X247083170Y-84869632D01*
X247092349Y-84889038D01*
X247099581Y-84909250D01*
X247104797Y-84930074D01*
X247107947Y-84951309D01*
X247109000Y-84972750D01*
X247109000Y-85410250D01*
X247107947Y-85431691D01*
X247104797Y-85452926D01*
X247099581Y-85473750D01*
X247092349Y-85493962D01*
X247083170Y-85513368D01*
X247072134Y-85531781D01*
X247059346Y-85549024D01*
X247044930Y-85564930D01*
X247029024Y-85579346D01*
X247011781Y-85592134D01*
X246993368Y-85603170D01*
X246973962Y-85612349D01*
X246953750Y-85619581D01*
X246932926Y-85624797D01*
X246911691Y-85627947D01*
X246890250Y-85629000D01*
X246377750Y-85629000D01*
X246356309Y-85627947D01*
X246335074Y-85624797D01*
X246314250Y-85619581D01*
X246294038Y-85612349D01*
X246274632Y-85603170D01*
X246256219Y-85592134D01*
X246238976Y-85579346D01*
X246223070Y-85564930D01*
X246208654Y-85549024D01*
X246195866Y-85531781D01*
X246184830Y-85513368D01*
X246175651Y-85493962D01*
X246168419Y-85473750D01*
X246163203Y-85452926D01*
X246160053Y-85431691D01*
X246159000Y-85410250D01*
X246159000Y-84972750D01*
X246160053Y-84951309D01*
X246163203Y-84930074D01*
X246168419Y-84909250D01*
X246175651Y-84889038D01*
X246184830Y-84869632D01*
X246195866Y-84851219D01*
X246208654Y-84833976D01*
X246223070Y-84818070D01*
X246238976Y-84803654D01*
X246256219Y-84790866D01*
X246274632Y-84779830D01*
X246294038Y-84770651D01*
X246314250Y-84763419D01*
X246335074Y-84758203D01*
X246356309Y-84755053D01*
X246377750Y-84754000D01*
X246890250Y-84754000D01*
X246911691Y-84755053D01*
G37*
G36*
X245260691Y-86330053D02*
G01*
X245281926Y-86333203D01*
X245302750Y-86338419D01*
X245322962Y-86345651D01*
X245342368Y-86354830D01*
X245360781Y-86365866D01*
X245378024Y-86378654D01*
X245393930Y-86393070D01*
X245408346Y-86408976D01*
X245421134Y-86426219D01*
X245432170Y-86444632D01*
X245441349Y-86464038D01*
X245448581Y-86484250D01*
X245453797Y-86505074D01*
X245456947Y-86526309D01*
X245458000Y-86547750D01*
X245458000Y-86985250D01*
X245456947Y-87006691D01*
X245453797Y-87027926D01*
X245448581Y-87048750D01*
X245441349Y-87068962D01*
X245432170Y-87088368D01*
X245421134Y-87106781D01*
X245408346Y-87124024D01*
X245393930Y-87139930D01*
X245378024Y-87154346D01*
X245360781Y-87167134D01*
X245342368Y-87178170D01*
X245322962Y-87187349D01*
X245302750Y-87194581D01*
X245281926Y-87199797D01*
X245260691Y-87202947D01*
X245239250Y-87204000D01*
X244726750Y-87204000D01*
X244705309Y-87202947D01*
X244684074Y-87199797D01*
X244663250Y-87194581D01*
X244643038Y-87187349D01*
X244623632Y-87178170D01*
X244605219Y-87167134D01*
X244587976Y-87154346D01*
X244572070Y-87139930D01*
X244557654Y-87124024D01*
X244544866Y-87106781D01*
X244533830Y-87088368D01*
X244524651Y-87068962D01*
X244517419Y-87048750D01*
X244512203Y-87027926D01*
X244509053Y-87006691D01*
X244508000Y-86985250D01*
X244508000Y-86547750D01*
X244509053Y-86526309D01*
X244512203Y-86505074D01*
X244517419Y-86484250D01*
X244524651Y-86464038D01*
X244533830Y-86444632D01*
X244544866Y-86426219D01*
X244557654Y-86408976D01*
X244572070Y-86393070D01*
X244587976Y-86378654D01*
X244605219Y-86365866D01*
X244623632Y-86354830D01*
X244643038Y-86345651D01*
X244663250Y-86338419D01*
X244684074Y-86333203D01*
X244705309Y-86330053D01*
X244726750Y-86329000D01*
X245239250Y-86329000D01*
X245260691Y-86330053D01*
G37*
G36*
X245260691Y-84755053D02*
G01*
X245281926Y-84758203D01*
X245302750Y-84763419D01*
X245322962Y-84770651D01*
X245342368Y-84779830D01*
X245360781Y-84790866D01*
X245378024Y-84803654D01*
X245393930Y-84818070D01*
X245408346Y-84833976D01*
X245421134Y-84851219D01*
X245432170Y-84869632D01*
X245441349Y-84889038D01*
X245448581Y-84909250D01*
X245453797Y-84930074D01*
X245456947Y-84951309D01*
X245458000Y-84972750D01*
X245458000Y-85410250D01*
X245456947Y-85431691D01*
X245453797Y-85452926D01*
X245448581Y-85473750D01*
X245441349Y-85493962D01*
X245432170Y-85513368D01*
X245421134Y-85531781D01*
X245408346Y-85549024D01*
X245393930Y-85564930D01*
X245378024Y-85579346D01*
X245360781Y-85592134D01*
X245342368Y-85603170D01*
X245322962Y-85612349D01*
X245302750Y-85619581D01*
X245281926Y-85624797D01*
X245260691Y-85627947D01*
X245239250Y-85629000D01*
X244726750Y-85629000D01*
X244705309Y-85627947D01*
X244684074Y-85624797D01*
X244663250Y-85619581D01*
X244643038Y-85612349D01*
X244623632Y-85603170D01*
X244605219Y-85592134D01*
X244587976Y-85579346D01*
X244572070Y-85564930D01*
X244557654Y-85549024D01*
X244544866Y-85531781D01*
X244533830Y-85513368D01*
X244524651Y-85493962D01*
X244517419Y-85473750D01*
X244512203Y-85452926D01*
X244509053Y-85431691D01*
X244508000Y-85410250D01*
X244508000Y-84972750D01*
X244509053Y-84951309D01*
X244512203Y-84930074D01*
X244517419Y-84909250D01*
X244524651Y-84889038D01*
X244533830Y-84869632D01*
X244544866Y-84851219D01*
X244557654Y-84833976D01*
X244572070Y-84818070D01*
X244587976Y-84803654D01*
X244605219Y-84790866D01*
X244623632Y-84779830D01*
X244643038Y-84770651D01*
X244663250Y-84763419D01*
X244684074Y-84758203D01*
X244705309Y-84755053D01*
X244726750Y-84754000D01*
X245239250Y-84754000D01*
X245260691Y-84755053D01*
G37*
G36*
X244879691Y-76754053D02*
G01*
X244900926Y-76757203D01*
X244921750Y-76762419D01*
X244941962Y-76769651D01*
X244961368Y-76778830D01*
X244979781Y-76789866D01*
X244997024Y-76802654D01*
X245012930Y-76817070D01*
X245027346Y-76832976D01*
X245040134Y-76850219D01*
X245051170Y-76868632D01*
X245060349Y-76888038D01*
X245067581Y-76908250D01*
X245072797Y-76929074D01*
X245075947Y-76950309D01*
X245077000Y-76971750D01*
X245077000Y-77409250D01*
X245075947Y-77430691D01*
X245072797Y-77451926D01*
X245067581Y-77472750D01*
X245060349Y-77492962D01*
X245051170Y-77512368D01*
X245040134Y-77530781D01*
X245027346Y-77548024D01*
X245012930Y-77563930D01*
X244997024Y-77578346D01*
X244979781Y-77591134D01*
X244961368Y-77602170D01*
X244941962Y-77611349D01*
X244921750Y-77618581D01*
X244900926Y-77623797D01*
X244879691Y-77626947D01*
X244858250Y-77628000D01*
X244345750Y-77628000D01*
X244324309Y-77626947D01*
X244303074Y-77623797D01*
X244282250Y-77618581D01*
X244262038Y-77611349D01*
X244242632Y-77602170D01*
X244224219Y-77591134D01*
X244206976Y-77578346D01*
X244191070Y-77563930D01*
X244176654Y-77548024D01*
X244163866Y-77530781D01*
X244152830Y-77512368D01*
X244143651Y-77492962D01*
X244136419Y-77472750D01*
X244131203Y-77451926D01*
X244128053Y-77430691D01*
X244127000Y-77409250D01*
X244127000Y-76971750D01*
X244128053Y-76950309D01*
X244131203Y-76929074D01*
X244136419Y-76908250D01*
X244143651Y-76888038D01*
X244152830Y-76868632D01*
X244163866Y-76850219D01*
X244176654Y-76832976D01*
X244191070Y-76817070D01*
X244206976Y-76802654D01*
X244224219Y-76789866D01*
X244242632Y-76778830D01*
X244262038Y-76769651D01*
X244282250Y-76762419D01*
X244303074Y-76757203D01*
X244324309Y-76754053D01*
X244345750Y-76753000D01*
X244858250Y-76753000D01*
X244879691Y-76754053D01*
G37*
G36*
X244879691Y-78329053D02*
G01*
X244900926Y-78332203D01*
X244921750Y-78337419D01*
X244941962Y-78344651D01*
X244961368Y-78353830D01*
X244979781Y-78364866D01*
X244997024Y-78377654D01*
X245012930Y-78392070D01*
X245027346Y-78407976D01*
X245040134Y-78425219D01*
X245051170Y-78443632D01*
X245060349Y-78463038D01*
X245067581Y-78483250D01*
X245072797Y-78504074D01*
X245075947Y-78525309D01*
X245077000Y-78546750D01*
X245077000Y-78984250D01*
X245075947Y-79005691D01*
X245072797Y-79026926D01*
X245067581Y-79047750D01*
X245060349Y-79067962D01*
X245051170Y-79087368D01*
X245040134Y-79105781D01*
X245027346Y-79123024D01*
X245012930Y-79138930D01*
X244997024Y-79153346D01*
X244979781Y-79166134D01*
X244961368Y-79177170D01*
X244941962Y-79186349D01*
X244921750Y-79193581D01*
X244900926Y-79198797D01*
X244879691Y-79201947D01*
X244858250Y-79203000D01*
X244345750Y-79203000D01*
X244324309Y-79201947D01*
X244303074Y-79198797D01*
X244282250Y-79193581D01*
X244262038Y-79186349D01*
X244242632Y-79177170D01*
X244224219Y-79166134D01*
X244206976Y-79153346D01*
X244191070Y-79138930D01*
X244176654Y-79123024D01*
X244163866Y-79105781D01*
X244152830Y-79087368D01*
X244143651Y-79067962D01*
X244136419Y-79047750D01*
X244131203Y-79026926D01*
X244128053Y-79005691D01*
X244127000Y-78984250D01*
X244127000Y-78546750D01*
X244128053Y-78525309D01*
X244131203Y-78504074D01*
X244136419Y-78483250D01*
X244143651Y-78463038D01*
X244152830Y-78443632D01*
X244163866Y-78425219D01*
X244176654Y-78407976D01*
X244191070Y-78392070D01*
X244206976Y-78377654D01*
X244224219Y-78364866D01*
X244242632Y-78353830D01*
X244262038Y-78344651D01*
X244282250Y-78337419D01*
X244303074Y-78332203D01*
X244324309Y-78329053D01*
X244345750Y-78328000D01*
X244858250Y-78328000D01*
X244879691Y-78329053D01*
G37*
G36*
X243228691Y-76754053D02*
G01*
X243249926Y-76757203D01*
X243270750Y-76762419D01*
X243290962Y-76769651D01*
X243310368Y-76778830D01*
X243328781Y-76789866D01*
X243346024Y-76802654D01*
X243361930Y-76817070D01*
X243376346Y-76832976D01*
X243389134Y-76850219D01*
X243400170Y-76868632D01*
X243409349Y-76888038D01*
X243416581Y-76908250D01*
X243421797Y-76929074D01*
X243424947Y-76950309D01*
X243426000Y-76971750D01*
X243426000Y-77409250D01*
X243424947Y-77430691D01*
X243421797Y-77451926D01*
X243416581Y-77472750D01*
X243409349Y-77492962D01*
X243400170Y-77512368D01*
X243389134Y-77530781D01*
X243376346Y-77548024D01*
X243361930Y-77563930D01*
X243346024Y-77578346D01*
X243328781Y-77591134D01*
X243310368Y-77602170D01*
X243290962Y-77611349D01*
X243270750Y-77618581D01*
X243249926Y-77623797D01*
X243228691Y-77626947D01*
X243207250Y-77628000D01*
X242694750Y-77628000D01*
X242673309Y-77626947D01*
X242652074Y-77623797D01*
X242631250Y-77618581D01*
X242611038Y-77611349D01*
X242591632Y-77602170D01*
X242573219Y-77591134D01*
X242555976Y-77578346D01*
X242540070Y-77563930D01*
X242525654Y-77548024D01*
X242512866Y-77530781D01*
X242501830Y-77512368D01*
X242492651Y-77492962D01*
X242485419Y-77472750D01*
X242480203Y-77451926D01*
X242477053Y-77430691D01*
X242476000Y-77409250D01*
X242476000Y-76971750D01*
X242477053Y-76950309D01*
X242480203Y-76929074D01*
X242485419Y-76908250D01*
X242492651Y-76888038D01*
X242501830Y-76868632D01*
X242512866Y-76850219D01*
X242525654Y-76832976D01*
X242540070Y-76817070D01*
X242555976Y-76802654D01*
X242573219Y-76789866D01*
X242591632Y-76778830D01*
X242611038Y-76769651D01*
X242631250Y-76762419D01*
X242652074Y-76757203D01*
X242673309Y-76754053D01*
X242694750Y-76753000D01*
X243207250Y-76753000D01*
X243228691Y-76754053D01*
G37*
G36*
X243228691Y-78329053D02*
G01*
X243249926Y-78332203D01*
X243270750Y-78337419D01*
X243290962Y-78344651D01*
X243310368Y-78353830D01*
X243328781Y-78364866D01*
X243346024Y-78377654D01*
X243361930Y-78392070D01*
X243376346Y-78407976D01*
X243389134Y-78425219D01*
X243400170Y-78443632D01*
X243409349Y-78463038D01*
X243416581Y-78483250D01*
X243421797Y-78504074D01*
X243424947Y-78525309D01*
X243426000Y-78546750D01*
X243426000Y-78984250D01*
X243424947Y-79005691D01*
X243421797Y-79026926D01*
X243416581Y-79047750D01*
X243409349Y-79067962D01*
X243400170Y-79087368D01*
X243389134Y-79105781D01*
X243376346Y-79123024D01*
X243361930Y-79138930D01*
X243346024Y-79153346D01*
X243328781Y-79166134D01*
X243310368Y-79177170D01*
X243290962Y-79186349D01*
X243270750Y-79193581D01*
X243249926Y-79198797D01*
X243228691Y-79201947D01*
X243207250Y-79203000D01*
X242694750Y-79203000D01*
X242673309Y-79201947D01*
X242652074Y-79198797D01*
X242631250Y-79193581D01*
X242611038Y-79186349D01*
X242591632Y-79177170D01*
X242573219Y-79166134D01*
X242555976Y-79153346D01*
X242540070Y-79138930D01*
X242525654Y-79123024D01*
X242512866Y-79105781D01*
X242501830Y-79087368D01*
X242492651Y-79067962D01*
X242485419Y-79047750D01*
X242480203Y-79026926D01*
X242477053Y-79005691D01*
X242476000Y-78984250D01*
X242476000Y-78546750D01*
X242477053Y-78525309D01*
X242480203Y-78504074D01*
X242485419Y-78483250D01*
X242492651Y-78463038D01*
X242501830Y-78443632D01*
X242512866Y-78425219D01*
X242525654Y-78407976D01*
X242540070Y-78392070D01*
X242555976Y-78377654D01*
X242573219Y-78364866D01*
X242591632Y-78353830D01*
X242611038Y-78344651D01*
X242631250Y-78337419D01*
X242652074Y-78332203D01*
X242673309Y-78329053D01*
X242694750Y-78328000D01*
X243207250Y-78328000D01*
X243228691Y-78329053D01*
G37*
M02*
