M48
; DRILL file {KiCad 5.1.5+dfsg1-2build2} date seg 29 jun 2020 20:33:34
; FORMAT={-:-/ absolute / metric / decimal}
; #@! TF.CreationDate,2020-06-29T20:33:34+01:00
; #@! TF.GenerationSoftware,Kicad,Pcbnew,5.1.5+dfsg1-2build2
; #@! TF.FileFunction,Plated,1,2,PTH
FMAT,2
METRIC
T1C0.300
T2C0.400
T3C0.500
T4C0.600
T5C0.650
T6C2.500
%
G90
G05
T1
X215.011Y-65.405
X215.265Y-70.485
X217.805Y-68.195
X219.075Y-64.135
X220.345Y-71.882
X220.345Y-64.146
X220.599Y-61.595
X221.615Y-64.146
X222.758Y-66.294
X222.758Y-69.215
X223.901Y-60.579
X224.282Y-66.802
X224.547Y-69.977
X225.171Y-100.076
X227.33Y-63.881
X229.362Y-74.93
X232.791Y-89.535
X233.205Y-80.899
X235.331Y-85.022
X235.712Y-86.614
X236.982Y-91.44
X237.109Y-88.646
X238.506Y-82.296
X238.506Y-83.312
X238.506Y-84.328
X238.506Y-87.135
X239.347Y-87.135
X239.522Y-82.296
X239.522Y-83.312
X239.522Y-84.328
X240.538Y-82.296
X240.538Y-83.312
X240.538Y-84.328
X240.622Y-90.358
X240.665Y-86.995
X241.554Y-79.121
X241.554Y-86.741
X242.189Y-85.725
X242.189Y-90.297
X243.586Y-81.28
X244.602Y-63.881
X245.212Y-83.312
X245.491Y-73.533
X246.634Y-86.766
X246.761Y-81.661
X247.396Y-77.978
X247.777Y-84.709
X249.174Y-80.391
T2
X216.154Y-57.658
X235.971Y-61.463
X236.033Y-83.488
X236.071Y-84.509
X236.855Y-62.23
X237.744Y-62.992
X238.125Y-68.453
X238.125Y-69.469
T3
X205.135Y-54.61
X205.684Y-53.284
X205.684Y-55.936
X207.01Y-52.735
X207.01Y-56.485
X208.336Y-53.284
X208.336Y-55.936
X208.885Y-54.61
X248.315Y-54.61
X248.864Y-53.284
X248.864Y-55.936
X250.19Y-52.735
X250.19Y-56.485
X251.516Y-53.284
X251.516Y-55.936
X252.065Y-54.61
X205.135Y-97.79
X205.684Y-96.464
X205.684Y-99.116
X207.01Y-95.915
X207.01Y-99.665
X208.336Y-96.464
X208.336Y-99.116
X208.885Y-97.79
X248.315Y-97.79
X248.864Y-96.464
X248.864Y-99.116
X250.19Y-95.915
X250.19Y-99.665
X251.516Y-96.464
X251.516Y-99.116
X252.065Y-97.79
T5
X216.535Y-76.835
X216.535Y-78.105
X217.805Y-76.835
X217.805Y-78.105
X219.075Y-76.835
X219.075Y-78.105
X220.345Y-76.835
X220.345Y-78.105
X221.615Y-76.835
X221.615Y-78.105
T6
X207.01Y-54.61
X250.19Y-54.61
X207.01Y-97.79
X250.19Y-97.79
T4
G00X235.075Y-95.775
M15
G01X235.075Y-94.675
M16
G05
G00X235.075Y-99.795
M15
G01X235.075Y-98.995
M16
G05
G00X243.715Y-95.775
M15
G01X243.715Y-94.675
M16
G05
G00X243.715Y-99.795
M15
G01X243.715Y-98.995
M16
G05
T0
M30
